{
.appVersion = "973";
copyright = "Copyright 2017 Google Inc. All Rights Reserved.";
customParameters = (
{
name = glyphOrder;
value = (
.notdef,
NULL,
CR,
space,
uni00A0,
uni002E,
uni00B7,
uni200C,
uni200D,
uni2E30,
uni2E31,
u10B00,
u10B01,
u10B02,
u10B03,
u10B04,
u10B05,
u10B06,
u10B07,
u10B08,
u10B09,
u10B0A,
u10B0B,
u10B0C,
u10B0D,
u10B0E,
u10B0F,
u10B10,
u10B11,
u10B12,
u10B13,
u10B14,
u10B15,
u10B16,
u10B17,
u10B18,
u10B19,
u10B1A,
u10B1B,
u10B1C,
u10B1D,
u10B1E,
u10B1F,
u10B20,
u10B21,
u10B22,
u10B23,
u10B24,
u10B25,
u10B26,
u10B27,
u10B28,
u10B29,
u10B2A,
u10B2B,
u10B2C,
u10B2D,
u10B2E,
u10B2F,
u10B30,
u10B31,
u10B32,
u10B33,
u10B34,
u10B35,
u10B39,
u10B3A,
u10B3B,
u10B3C,
u10B3D,
u10B3E,
u10B3F,
u10B3110B00,
u10B3110B17,
u10B3110B19,
u10B0010B35
);
},
{
name = description;
value = "Designed by Monotype design team.";
},
{
name = license;
value = "This Font Software is licensed under the SIL Open Font License, Version 1.1. This Font Software is distributed on an \"AS IS\" BASIS, WITHOUT WARRANTIES OR CONDITIONS OF ANY KIND, either express or implied. See the SIL Open Font License for the specific language, permissions and limitations governing your use of this Font Software.";
},
{
name = licenseURL;
value = "http://scripts.sil.org/OFL";
},
{
name = vendorID;
value = GOOG;
},
{
name = unicodeRanges;
value = (
0,
1,
31,
57
);
},
{
name = trademark;
value = "Noto is a trademark of Google Inc.";
},
{
name = "Has WWS Names";
value = 1;
},
{
name = versionString;
value = "Version 1.900";
},
{
name = fsType;
value = (
);
},
{
name = codePageRanges;
value = (
"1252"
);
}
);
date = "2017-02-22 23:24:00 +0000";
designer = "Monotype Design Team";
designerURL = "http://www.monotype.com/studio";
disablesAutomaticAlignment = 1;
disablesNiceNames = 1;
familyName = "Noto Sans Avestan";
fontMaster = (
{
alignmentZones = (
"{760, 15}",
"{652, 15}",
"{536, 15}",
"{0, -15}",
"{-240, -15}"
);
ascender = 760;
capHeight = 652;
customParameters = (
{
name = typoAscender;

glyphs = (
{
glyphname = .notdef;
lastChange = "2017-02-24 13:58:11 +0000";
layers = (
{
layerId = UUID0;
paths = (
{
closed = 1;
nodes = (
"505 0 LINE",
"505 714 LINE",
"94 714 LINE",
"94 0 LINE"
);
},
{
closed = 1;
nodes = (
"145 663 LINE",
"454 663 LINE",
"454 51 LINE",
"145 51 LINE"
);
}
);
width = 600;
}
);
},
{
glyphname = uni002E;
lastChange = "2017-02-24 14:08:40 +0000";
layers = (
{
layerId = UUID0;
paths = (
{
closed = 1;
nodes = (
"184 -14 OFFCURVE",
"215 22 OFFCURVE",
"215 63 CURVE SMOOTH",
"215 108 OFFCURVE",
"189 134 OFFCURVE",
"150 134 CURVE SMOOTH",
"105 134 OFFCURVE",
"72 103 OFFCURVE",
"72 50 CURVE SMOOTH",
"72 10 OFFCURVE",
"94 -14 OFFCURVE",
"138 -14 CURVE SMOOTH"
);
}
);
width = 287;
}
);
unicode = 002E;
},
{
glyphname = uni00B7;
lastChange = "2017-02-24 14:08:50 +0000";
layers = (
{
layerId = UUID0;
paths = (
{
closed = 1;
nodes = (
"184 292 OFFCURVE",
"215 328 OFFCURVE",
"215 369 CURVE SMOOTH",
"215 414 OFFCURVE",
"189 440 OFFCURVE",
"150 440 CURVE SMOOTH",
"105 440 OFFCURVE",
"72 409 OFFCURVE",
"72 356 CURVE SMOOTH",
"72 316 OFFCURVE",
"94 292 OFFCURVE",
"138 292 CURVE SMOOTH"
);
}
);
width = 287;
}
);
unicode = 00B7;
},
{
glyphname = uni200C;
lastChange = "2017-02-24 13:58:11 +0000";
layers = (
{
layerId = UUID0;
paths = (
{
closed = 1;
nodes = (
"26 -166 LINE",
"26 788 LINE",
"-26 788 LINE",
"-26 -166 LINE"
);
}
);
width = 0;
}
);
},
{
glyphname = uni200D;
lastChange = "2017-02-24 13:58:11 +0000";
layers = (
{
layerId = UUID0;
paths = (
{
closed = 1;
nodes = (
"26 -165 LINE",
"26 585 LINE",
"109 503 LINE",
"146 539 LINE",
"36 646 LINE",
"146 751 LINE",
"109 788 LINE",
"0 680 LINE",
"-109 788 LINE",
"-146 752 LINE",
"-36 646 LINE",
"-146 539 LINE",
"-109 503 LINE",
"-26 585 LINE",
"-26 -165 LINE"
);
}
);
width = 0;
}
);
},
{
glyphname = uni2E30;
lastChange = "2017-02-24 13:58:11 +0000";
layers = (
{
layerId = UUID0;
paths = (
{
closed = 1;
nodes = (
"240 190 OFFCURVE",
"298 240 OFFCURVE",
"298 311 CURVE SMOOTH",
"298 377 OFFCURVE",
"243 432 OFFCURVE",
"177 432 CURVE SMOOTH",
"111 432 OFFCURVE",
"56 377 OFFCURVE",
"56 311 CURVE SMOOTH",
"56 242 OFFCURVE",
"109 190 OFFCURVE",
"177 190 CURVE SMOOTH"
);
},
{
closed = 1;
nodes = (
"129 227 OFFCURVE",
"93 264 OFFCURVE",
"93 311 CURVE SMOOTH",
"93 356 OFFCURVE",
"132 395 OFFCURVE",
"177 395 CURVE SMOOTH",
"222 395 OFFCURVE",
"261 356 OFFCURVE",
"261 311 CURVE SMOOTH",
"261 267 OFFCURVE",
"228 227 OFFCURVE",
"177 227 CURVE SMOOTH"
);
}
);
width = 354;
}
);
unicode = 2E30;
},
{
glyphname = uni2E31;
lastChange = "2017-02-24 13:58:11 +0000";
layers = (
{
layerId = UUID0;
paths = (
{
closed = 1;
nodes = (
"253 292 OFFCURVE",
"284 328 OFFCURVE",
"284 369 CURVE SMOOTH",
"284 414 OFFCURVE",
"258 440 OFFCURVE",
"219 440 CURVE SMOOTH",
"174 440 OFFCURVE",
"141 409 OFFCURVE",
"141 356 CURVE SMOOTH",
"141 316 OFFCURVE",
"163 292 OFFCURVE",
"207 292 CURVE SMOOTH"
);
}
);
width = 425;
}
);
unicode = 2E31;
},
{
glyphname = u10B00;
lastChange = "2017-02-24 13:58:11 +0000";
layers = (
{
layerId = UUID0;
paths = (
{
closed = 1;
nodes = (
"270 84 OFFCURVE",
"313 121 OFFCURVE",
"347 188 CURVE",
"381 121 OFFCURVE",
"424 84 OFFCURVE",
"517 84 CURVE SMOOTH",
"667 84 OFFCURVE",
"732 141 OFFCURVE",
"732 287 CURVE SMOOTH",
"732 326 OFFCURVE",
"722 383 OFFCURVE",
"712 428 CURVE",
"642 428 LINE",
"642 288 LINE SMOOTH",
"642 192 OFFCURVE",
"604 157 OFFCURVE",
"513 157 CURVE SMOOTH",
"429 157 OFFCURVE",
"392 192 OFFCURVE",
"392 297 CURVE SMOOTH",
"392 333 OFFCURVE",
"382 388 OFFCURVE",
"372 428 CURVE",
"302 428 LINE",
"302 292 LINE SMOOTH",
"302 196 OFFCURVE",
"264 157 OFFCURVE",
"170 157 CURVE SMOOTH",
"20 157 LINE",
"20 94 LINE",
"64 88 OFFCURVE",
"112 84 OFFCURVE",
"175 84 CURVE SMOOTH"
);
}
);
width = 797;
}
);
unicode = 10B00;
},
{
glyphname = u10B01;
lastChange = "2017-02-24 13:58:11 +0000";
layers = (
{
layerId = UUID0;
paths = (
{
closed = 1;
nodes = (
"269 84 OFFCURVE",
"312 121 OFFCURVE",
"346 188 CURVE",
"379 121 OFFCURVE",
"422 84 OFFCURVE",
"513 84 CURVE SMOOTH",
"608 84 OFFCURVE",
"652 121 OFFCURVE",
"686 188 CURVE",
"720 121 OFFCURVE",
"763 84 OFFCURVE",
"856 84 CURVE SMOOTH",
"1006 84 OFFCURVE",
"1071 141 OFFCURVE",
"1071 287 CURVE SMOOTH",
"1071 327 OFFCURVE",
"1061 383 OFFCURVE",
"1051 428 CURVE",
"981 428 LINE",
"981 288 LINE SMOOTH",
"981 192 OFFCURVE",
"943 157 OFFCURVE",
"852 157 CURVE SMOOTH",
"768 157 OFFCURVE",
"731 189 OFFCURVE",
"731 295 CURVE SMOOTH",
"731 334 OFFCURVE",
"721 386 OFFCURVE",
"711 428 CURVE",
"641 428 LINE",
"641 288 LINE SMOOTH",
"641 192 OFFCURVE",
"603 157 OFFCURVE",
"512 157 CURVE SMOOTH",
"428 157 OFFCURVE",
"391 192 OFFCURVE",
"391 298 CURVE SMOOTH",
"391 334 OFFCURVE",
"381 388 OFFCURVE",
"371 428 CURVE",
"301 428 LINE",
"301 293 LINE SMOOTH",
"301 196 OFFCURVE",
"263 157 OFFCURVE",
"169 157 CURVE SMOOTH",
"20 157 LINE",
"20 94 LINE",
"64 88 OFFCURVE",
"112 84 OFFCURVE",
"174 84 CURVE SMOOTH"
);
}
);
width = 1136;
}
);
unicode = 10B01;
},
{
glyphname = u10B02;
lastChange = "2017-02-24 13:58:11 +0000";
layers = (
{
layerId = UUID0;
paths = (
{
closed = 1;
nodes = (
"254 -169 LINE",
"178 -151 OFFCURVE",
"147 -121 OFFCURVE",
"147 -52 CURVE SMOOTH",
"147 21 OFFCURVE",
"181 64 OFFCURVE",
"264 64 CURVE",
"264 87 LINE",
"291 85 OFFCURVE",
"320 84 OFFCURVE",
"354 84 CURVE SMOOTH",
"449 84 OFFCURVE",
"492 121 OFFCURVE",
"526 188 CURVE",
"560 121 OFFCURVE",
"603 84 OFFCURVE",
"696 84 CURVE SMOOTH",
"846 84 OFFCURVE",
"911 141 OFFCURVE",
"911 287 CURVE SMOOTH",
"911 326 OFFCURVE",
"901 383 OFFCURVE",
"891 428 CURVE",
"821 428 LINE",
"821 288 LINE SMOOTH",
"821 192 OFFCURVE",
"783 157 OFFCURVE",
"692 157 CURVE SMOOTH",
"608 157 OFFCURVE",
"571 192 OFFCURVE",
"571 297 CURVE SMOOTH",
"571 333 OFFCURVE",
"561 388 OFFCURVE",
"551 428 CURVE",
"481 428 LINE",
"481 292 LINE SMOOTH",
"481 196 OFFCURVE",
"443 157 OFFCURVE",
"349 157 CURVE SMOOTH",
"199 157 LINE",
"199 152 LINE",
"162 166 OFFCURVE",
"147 195 OFFCURVE",
"147 252 CURVE SMOOTH",
"147 318 OFFCURVE",
"181 360 OFFCURVE",
"264 360 CURVE",
"264 438 LINE",
"133 438 OFFCURVE",
"55 368 OFFCURVE",
"55 253 CURVE SMOOTH",
"55 179 OFFCURVE",
"85 128 OFFCURVE",
"160 100 CURVE",
"95 69 OFFCURVE",
"55 24 OFFCURVE",
"55 -53 CURVE SMOOTH",
"55 -160 OFFCURVE",
"110 -216 OFFCURVE",
"225 -240 CURVE"
);
}
);
width = 976;
}
);
unicode = 10B02;
},
{
glyphname = u10B03;
lastChange = "2017-02-24 13:58:11 +0000";
layers = (
{
layerId = UUID0;
paths = (
{
closed = 1;
nodes = (
"254 -169 LINE",
"178 -151 OFFCURVE",
"147 -121 OFFCURVE",
"147 -52 CURVE SMOOTH",
"147 21 OFFCURVE",
"181 64 OFFCURVE",
"264 64 CURVE",
"264 87 LINE",
"291 85 OFFCURVE",
"320 84 OFFCURVE",
"354 84 CURVE SMOOTH",
"449 84 OFFCURVE",
"492 121 OFFCURVE",
"526 188 CURVE",
"559 121 OFFCURVE",
"602 84 OFFCURVE",
"693 84 CURVE SMOOTH",
"788 84 OFFCURVE",
"832 121 OFFCURVE",
"866 188 CURVE",
"900 121 OFFCURVE",
"943 84 OFFCURVE",
"1036 84 CURVE SMOOTH",
"1186 84 OFFCURVE",
"1251 141 OFFCURVE",
"1251 287 CURVE SMOOTH",
"1251 327 OFFCURVE",
"1241 383 OFFCURVE",
"1231 428 CURVE",
"1161 428 LINE",
"1161 288 LINE SMOOTH",
"1161 192 OFFCURVE",
"1123 157 OFFCURVE",
"1032 157 CURVE SMOOTH",
"948 157 OFFCURVE",
"911 189 OFFCURVE",
"911 295 CURVE SMOOTH",
"911 334 OFFCURVE",
"901 386 OFFCURVE",
"891 428 CURVE",
"821 428 LINE",
"821 288 LINE SMOOTH",
"821 192 OFFCURVE",
"783 157 OFFCURVE",
"692 157 CURVE SMOOTH",
"608 157 OFFCURVE",
"571 192 OFFCURVE",
"571 298 CURVE SMOOTH",
"571 334 OFFCURVE",
"561 388 OFFCURVE",
"551 428 CURVE",
"481 428 LINE",
"481 293 LINE SMOOTH",
"481 196 OFFCURVE",
"443 157 OFFCURVE",
"349 157 CURVE SMOOTH",
"200 157 LINE",
"200 152 LINE",
"163 165 OFFCURVE",
"147 194 OFFCURVE",
"147 252 CURVE SMOOTH",
"147 318 OFFCURVE",
"181 360 OFFCURVE",
"264 360 CURVE",
"264 438 LINE",
"133 438 OFFCURVE",
"55 368 OFFCURVE",
"55 253 CURVE SMOOTH",
"55 179 OFFCURVE",
"85 128 OFFCURVE",
"160 100 CURVE",
"95 69 OFFCURVE",
"55 24 OFFCURVE",
"55 -53 CURVE SMOOTH",
"55 -160 OFFCURVE",
"110 -216 OFFCURVE",
"225 -240 CURVE"
);
}
);
width = 1316;
}
);
unicode = 10B03;
},
{
glyphname = u10B04;
lastChange = "2017-02-24 13:58:11 +0000";
layers = (
{
layerId = UUID0;
paths = (
{
closed = 1;
nodes = (
"134 -108 LINE",
"172 -30 OFFCURVE",
"196 59 OFFCURVE",
"206 148 CURVE",
"213 41 OFFCURVE",
"254 -47 OFFCURVE",
"310 -108 CURVE",
"398 -108 LINE",
"336 -33 OFFCURVE",
"290 49 OFFCURVE",
"290 172 CURVE SMOOTH",
"290 309 OFFCURVE",
"320 370 OFFCURVE",
"384 370 CURVE SMOOTH",
"418 370 OFFCURVE",
"441 343 OFFCURVE",
"441 296 CURVE SMOOTH",
"441 233 OFFCURVE",
"479 178 OFFCURVE",
"584 178 CURVE SMOOTH",
"688 178 OFFCURVE",
"740 230 OFFCURVE",
"740 322 CURVE SMOOTH",
"740 350 OFFCURVE",
"730 397 OFFCURVE",
"720 428 CURVE",
"651 428 LINE",
"651 338 LINE SMOOTH",
"651 280 OFFCURVE",
"631 251 OFFCURVE",
"584 251 CURVE SMOOTH",
"540 251 OFFCURVE",
"526 279 OFFCURVE",
"526 312 CURVE SMOOTH",
"526 387 OFFCURVE",
"482 438 OFFCURVE",
"384 438 CURVE SMOOTH",
"283 438 OFFCURVE",
"223 375 OFFCURVE",
"206 247 CURVE",
"201 323 OFFCURVE",
"173 398 OFFCURVE",
"136 428 CURVE",
"51 428 LINE",
"103 382 OFFCURVE",
"122 295 OFFCURVE",
"122 231 CURVE SMOOTH",
"122 116 OFFCURVE",
"95 -6 OFFCURVE",
"50 -108 CURVE"
);
}
);
width = 780;
}
);
unicode = 10B04;
},
{
glyphname = u10B05;
lastChange = "2017-02-24 13:58:11 +0000";
layers = (
{
layerId = UUID0;
paths = (
{
closed = 1;
nodes = (
"429 -240 LINE",
"362 -159 OFFCURVE",
"326 -96 OFFCURVE",
"307 0 CURVE",
"620 0 LINE",
"620 78 LINE",
"296 78 LINE",
"292 107 OFFCURVE",
"290 155 OFFCURVE",
"289 202 CURVE",
"316 168 OFFCURVE",
"355 154 OFFCURVE",
"408 154 CURVE SMOOTH",
"556 154 OFFCURVE",
"599 199 OFFCURVE",
"599 312 CURVE SMOOTH",
"599 343 OFFCURVE",
"589 394 OFFCURVE",
"579 428 CURVE",
"509 428 LINE",
"509 339 LINE SMOOTH",
"509 259 OFFCURVE",
"492 232 OFFCURVE",
"405 232 CURVE SMOOTH",
"324 232 OFFCURVE",
"289 272 OFFCURVE",
"289 422 CURVE SMOOTH",
"289 428 LINE",
"200 428 LINE",
"200 274 LINE SMOOTH",
"200 198 OFFCURVE",
"203 134 OFFCURVE",
"209 78 CURVE",
"37 78 LINE",
"37 -100 LINE",
"126 -100 LINE",
"126 0 LINE",
"221 0 LINE",
"243 -110 OFFCURVE",
"284 -180 OFFCURVE",
"347 -240 CURVE"
);
}
);
width = 600;
}
);
unicode = 10B05;
},
{
glyphname = u10B06;
lastChange = "2017-02-24 13:58:11 +0000";
layers = (
{
layerId = UUID0;
paths = (
{
closed = 1;
nodes = (
"254 -169 LINE",
"178 -151 OFFCURVE",
"147 -121 OFFCURVE",
"147 -52 CURVE SMOOTH",
"147 21 OFFCURVE",
"181 64 OFFCURVE",
"264 64 CURVE",
"264 142 LINE",
"181 146 OFFCURVE",
"147 168 OFFCURVE",
"147 252 CURVE SMOOTH",
"147 318 OFFCURVE",
"181 360 OFFCURVE",
"264 360 CURVE",
"264 438 LINE",
"133 438 OFFCURVE",
"55 368 OFFCURVE",
"55 253 CURVE SMOOTH",
"55 179 OFFCURVE",
"85 128 OFFCURVE",
"160 100 CURVE",
"95 69 OFFCURVE",
"55 24 OFFCURVE",
"55 -53 CURVE SMOOTH",
"55 -160 OFFCURVE",
"110 -216 OFFCURVE",
"225 -240 CURVE"
);
}
);
width = 314;
}
);
unicode = 10B06;
},
{
glyphname = u10B07;
lastChange = "2017-02-24 13:58:11 +0000";
layers = (
{
layerId = UUID0;
paths = (
{
closed = 1;
nodes = (
"254 -240 LINE",
"254 -81 LINE",
"178 -67 OFFCURVE",
"147 -44 OFFCURVE",
"147 9 CURVE SMOOTH",
"147 66 OFFCURVE",
"181 99 OFFCURVE",
"264 99 CURVE",
"264 166 LINE",
"181 169 OFFCURVE",
"147 189 OFFCURVE",
"147 264 CURVE SMOOTH",
"147 323 OFFCURVE",
"181 360 OFFCURVE",
"264 360 CURVE",
"264 438 LINE",
"133 438 OFFCURVE",
"55 375 OFFCURVE",
"55 270 CURVE SMOOTH",
"55 203 OFFCURVE",
"85 157 OFFCURVE",
"160 131 CURVE",
"95 106 OFFCURVE",
"55 69 OFFCURVE",
"55 6 CURVE SMOOTH",
"55 -62 OFFCURVE",
"97 -104 OFFCURVE",
"165 -130 CURVE",
"165 -240 LINE"
);
}
);
width = 314;
}
);
unicode = 10B07;
},
{
glyphname = u10B08;
lastChange = "2017-02-24 13:58:11 +0000";
layers = (
{
layerId = UUID0;
paths = (
{
closed = 1;
nodes = (
"703 -118 OFFCURVE",
"779 -23 OFFCURVE",
"779 184 CURVE SMOOTH",
"779 283 OFFCURVE",
"768 349 OFFCURVE",
"747 428 CURVE",
"659 428 LINE",
"679 348 OFFCURVE",
"690 281 OFFCURVE",
"690 188 CURVE SMOOTH",
"690 28 OFFCURVE",
"643 -46 OFFCURVE",
"548 -46 CURVE SMOOTH",
"453 -46 OFFCURVE",
"406 28 OFFCURVE",
"406 188 CURVE SMOOTH",
"406 281 OFFCURVE",
"417 348 OFFCURVE",
"437 428 CURVE",
"349 428 LINE",
"346 417 LINE SMOOTH",
"321 320 OFFCURVE",
"306 297 OFFCURVE",
"254 297 CURVE SMOOTH",
"203 297 OFFCURVE",
"174 318 OFFCURVE",
"174 385 CURVE SMOOTH",
"174 428 LINE",
"85 428 LINE",
"85 -108 LINE",
"174 -108 LINE",
"174 261 LINE",
"192 237 OFFCURVE",
"223 224 OFFCURVE",
"251 224 CURVE SMOOTH",
"277 224 OFFCURVE",
"299 231 OFFCURVE",
"318 243 CURVE",
"317 225 OFFCURVE",
"317 205 OFFCURVE",
"317 184 CURVE SMOOTH",
"317 -23 OFFCURVE",
"393 -118 OFFCURVE",
"548 -118 CURVE SMOOTH"
);
}
);
width = 849;
}
);
unicode = 10B08;
},
{
glyphname = u10B09;
lastChange = "2017-02-24 13:58:11 +0000";
layers = (
{
layerId = UUID0;
paths = (
{
closed = 1;
nodes = (
"391 -240 OFFCURVE",
"414 -153 OFFCURVE",
"500 -153 CURVE SMOOTH",
"541 -153 OFFCURVE",
"557 -180 OFFCURVE",
"557 -213 CURVE SMOOTH",
"557 -240 LINE",
"625 -240 LINE",
"632 -223 OFFCURVE",
"635 -202 OFFCURVE",
"635 -196 CURVE SMOOTH",
"635 -131 OFFCURVE",
"589 -80 OFFCURVE",
"514 -80 CURVE SMOOTH",
"382 -80 OFFCURVE",
"375 -167 OFFCURVE",
"283 -167 CURVE SMOOTH",
"216 -167 OFFCURVE",
"174 -92 OFFCURVE",
"174 118 CURVE SMOOTH",
"174 261 LINE",
"192 237 OFFCURVE",
"223 224 OFFCURVE",
"251 224 CURVE SMOOTH",
"277 224 OFFCURVE",
"299 231 OFFCURVE",
"318 243 CURVE",
"317 227 OFFCURVE",
"317 209 OFFCURVE",
"317 190 CURVE SMOOTH",
"317 46 OFFCURVE",
"393 -28 OFFCURVE",
"548 -28 CURVE SMOOTH",
"703 -28 OFFCURVE",
"779 49 OFFCURVE",
"779 200 CURVE SMOOTH",
"779 292 OFFCURVE",
"768 354 OFFCURVE",
"747 428 CURVE",
"659 428 LINE",
"679 354 OFFCURVE",
"690 292 OFFCURVE",
"690 206 CURVE SMOOTH",
"690 101 OFFCURVE",
"643 45 OFFCURVE",
"548 45 CURVE SMOOTH",
"453 45 OFFCURVE",
"406 101 OFFCURVE",
"406 206 CURVE SMOOTH",
"406 292 OFFCURVE",
"417 354 OFFCURVE",
"437 428 CURVE",
"349 428 LINE",
"346 417 LINE SMOOTH",
"320 320 OFFCURVE",
"306 297 OFFCURVE",
"254 297 CURVE SMOOTH",
"203 297 OFFCURVE",
"174 318 OFFCURVE",
"174 385 CURVE SMOOTH",
"174 428 LINE",
"85 428 LINE",
"85 120 LINE SMOOTH",
"85 -150 OFFCURVE",
"147 -240 OFFCURVE",
"277 -240 CURVE SMOOTH"
);
}
);
width = 849;
}
);
unicode = 10B09;
},
{
glyphname = u10B0A;
lastChange = "2017-02-24 13:58:11 +0000";
layers = (
{
layerId = UUID0;
paths = (
{
closed = 1;
nodes = (
"429 406 OFFCURVE",
"353 438 OFFCURVE",
"193 438 CURVE SMOOTH",
"108 438 OFFCURVE",
"27 417 OFFCURVE",
"-25 392 CURVE",
"2 326 LINE",
"59 347 OFFCURVE",
"126 365 OFFCURVE",
"199 365 CURVE SMOOTH",
"291 365 OFFCURVE",
"345 348 OFFCURVE",
"345 303 CURVE SMOOTH",
"345 239 OFFCURVE",
"370 214 OFFCURVE",
"523 176 CURVE SMOOTH",
"649 145 OFFCURVE",
"693 120 OFFCURVE",
"693 97 CURVE SMOOTH",
"693 84 OFFCURVE",
"678 73 OFFCURVE",
"633 73 CURVE SMOOTH",
"175 73 LINE",
"175 0 LINE",
"631 0 LINE SMOOTH",
"742 0 OFFCURVE",
"782 44 OFFCURVE",
"782 94 CURVE SMOOTH",
"782 148 OFFCURVE",
"760 171 OFFCURVE",
"717 194 CURVE SMOOTH",
"687 210 OFFCURVE",
"640 225 OFFCURVE",
"591 238 CURVE SMOOTH",
"439 278 OFFCURVE",
"429 278 OFFCURVE",
"429 331 CURVE SMOOTH"
);
}
);
width = 827;
}
);
unicode = 10B0A;
},
{
glyphname = u10B0B;
lastChange = "2017-02-24 13:58:11 +0000";
layers = (
{
layerId = UUID0;
paths = (
{
closed = 1;
nodes = (
"422 -240 LINE",
"422 0 LINE",
"631 0 LINE SMOOTH",
"742 0 OFFCURVE",
"782 44 OFFCURVE",
"782 94 CURVE SMOOTH",
"782 148 OFFCURVE",
"760 171 OFFCURVE",
"717 194 CURVE SMOOTH",
"687 210 OFFCURVE",
"640 225 OFFCURVE",
"591 238 CURVE SMOOTH",
"439 277 OFFCURVE",
"429 278 OFFCURVE",
"429 331 CURVE SMOOTH",
"429 406 OFFCURVE",
"353 438 OFFCURVE",
"193 438 CURVE SMOOTH",
"108 438 OFFCURVE",
"27 417 OFFCURVE",
"-25 392 CURVE",
"2 326 LINE",
"59 347 OFFCURVE",
"126 365 OFFCURVE",
"199 365 CURVE SMOOTH",
"291 365 OFFCURVE",
"345 348 OFFCURVE",
"345 303 CURVE SMOOTH",
"345 239 OFFCURVE",
"370 214 OFFCURVE",
"523 176 CURVE SMOOTH",
"649 145 OFFCURVE",
"693 120 OFFCURVE",
"693 97 CURVE SMOOTH",
"693 84 OFFCURVE",
"678 73 OFFCURVE",
"633 73 CURVE SMOOTH",
"175 73 LINE",
"175 0 LINE",
"333 0 LINE",
"333 -240 LINE"
);
}
);
width = 827;
}
);
unicode = 10B0B;
},
{
glyphname = u10B0C;
lastChange = "2017-02-24 13:58:11 +0000";
layers = (
{
layerId = UUID0;
paths = (
{
closed = 1;
nodes = (
"241 91 OFFCURVE",
"317 141 OFFCURVE",
"317 275 CURVE SMOOTH",
"317 316 OFFCURVE",
"307 383 OFFCURVE",
"297 428 CURVE",
"227 428 LINE",
"227 291 LINE SMOOTH",
"227 197 OFFCURVE",
"190 164 OFFCURVE",
"100 164 CURVE SMOOTH",
"20 164 LINE",
"20 101 LINE",
"41 95 OFFCURVE",
"73 91 OFFCURVE",
"102 91 CURVE SMOOTH"
);
}
);
width = 397;
}
);
unicode = 10B0C;
},
{
glyphname = u10B0D;
lastChange = "2017-02-24 13:58:11 +0000";
layers = (
{
layerId = UUID0;
paths = (
{
closed = 1;
nodes = (
"214 -168 LINE",
"214 92 LINE",
"345 101 OFFCURVE",
"413 153 OFFCURVE",
"413 275 CURVE SMOOTH",
"413 316 OFFCURVE",
"403 383 OFFCURVE",
"393 428 CURVE",
"323 428 LINE",
"323 291 LINE SMOOTH",
"323 197 OFFCURVE",
"278 164 OFFCURVE",
"168 164 CURVE SMOOTH",
"20 164 LINE",
"20 101 LINE",
"51 96 OFFCURVE",
"79 93 OFFCURVE",
"125 91 CURVE",
"125 -168 LINE"
);
}
);
width = 493;
}
);
unicode = 10B0D;
},
{
glyphname = u10B0E;
lastChange = "2017-02-24 13:58:11 +0000";
layers = (
{
layerId = UUID0;
paths = (
{
closed = 1;
nodes = (
"104 -108 LINE",
"165 2 OFFCURVE",
"211 81 OFFCURVE",
"211 211 CURVE SMOOTH",
"211 295 OFFCURVE",
"162 387 OFFCURVE",
"110 428 CURVE",
"21 428 LINE",
"73 382 OFFCURVE",
"122 281 OFFCURVE",
"122 211 CURVE SMOOTH",
"122 96 OFFCURVE",
"80 0 OFFCURVE",
"20 -108 CURVE"
);
}
);
width = 271;
}
);
unicode = 10B0E;
},
{
glyphname = u10B0F;
lastChange = "2017-02-24 13:58:11 +0000";
layers = (
{
layerId = UUID0;
paths = (
{
closed = 1;
nodes = (
"240 -89 LINE",
"240 -29 LINE SMOOTH",
"240 25 OFFCURVE",
"229 70 OFFCURVE",
"207 100 CURVE",
"227 89 OFFCURVE",
"254 84 OFFCURVE",
"277 84 CURVE SMOOTH",
"405 84 OFFCURVE",
"469 146 OFFCURVE",
"469 250 CURVE SMOOTH",
"469 310 OFFCURVE",
"445 396 OFFCURVE",
"383 467 CURVE",
"311 423 LINE",
"365 354 OFFCURVE",
"380 291 OFFCURVE",
"380 252 CURVE SMOOTH",
"380 185 OFFCURVE",
"336 157 OFFCURVE",
"277 157 CURVE SMOOTH",
"200 157 OFFCURVE",
"135 210 OFFCURVE",
"93 258 CURVE",
"36 197 LINE",
"111 128 OFFCURVE",
"148 59 OFFCURVE",
"148 -29 CURVE SMOOTH",
"148 -89 LINE"
);
}
);
width = 524;
}
);
unicode = 10B0F;
},
{
glyphname = u10B10;
lastChange = "2017-02-24 13:58:11 +0000";
layers = (
{
layerId = UUID0;
paths = (
{
closed = 1;
nodes = (
"127 -240 LINE",
"230 -90 OFFCURVE",
"299 106 OFFCURVE",
"299 252 CURVE SMOOTH",
"299 361 OFFCURVE",
"261 438 OFFCURVE",
"162 438 CURVE SMOOTH",
"93 438 OFFCURVE",
"36 394 OFFCURVE",
"36 319 CURVE SMOOTH",
"36 227 OFFCURVE",
"94 145 OFFCURVE",
"187 76 CURVE",
"165 -8 OFFCURVE",
"107 -130 OFFCURVE",
"43 -240 CURVE"
);
},
{
closed = 1;
nodes = (
"145 219 OFFCURVE",
"125 269 OFFCURVE",
"125 321 CURVE SMOOTH",
"125 353 OFFCURVE",
"142 365 OFFCURVE",
"162 365 CURVE SMOOTH",
"187 365 OFFCURVE",
"210 331 OFFCURVE",
"210 231 CURVE SMOOTH",
"210 213 OFFCURVE",
"207 177 OFFCURVE",
"206 171 CURVE"
);
}
);
width = 354;
}
);
unicode = 10B10;
},
{
glyphname = u10B11;
lastChange = "2017-02-24 13:58:11 +0000";
layers = (
{
layerId = UUID0;
paths = (
{
closed = 1;
nodes = (
"414 -118 OFFCURVE",
"492 -25 OFFCURVE",
"494 178 CURVE",
"521 147 OFFCURVE",
"561 127 OFFCURVE",
"616 127 CURVE SMOOTH",
"720 127 OFFCURVE",
"782 182 OFFCURVE",
"782 313 CURVE SMOOTH",
"782 350 OFFCURVE",
"772 391 OFFCURVE",
"762 428 CURVE",
"692 428 LINE",
"692 340 LINE SMOOTH",
"692 242 OFFCURVE",
"665 205 OFFCURVE",
"608 205 CURVE SMOOTH",
"523 205 OFFCURVE",
"498 264 OFFCURVE",
"471 387 CURVE SMOOTH",
"462 428 LINE",
"374 428 LINE",
"394 348 OFFCURVE",
"405 281 OFFCURVE",
"405 188 CURVE SMOOTH",
"405 28 OFFCURVE",
"361 -46 OFFCURVE",
"272 -46 CURVE SMOOTH",
"186 -46 OFFCURVE",
"144 13 OFFCURVE",
"144 102 CURVE SMOOTH",
"144 256 OFFCURVE",
"251 333 OFFCURVE",
"251 495 CURVE SMOOTH",
"251 559 OFFCURVE",
"233 622 OFFCURVE",
"207 652 CURVE",
"119 652 LINE",
"150 625 OFFCURVE",
"168 558 OFFCURVE",
"168 496 CURVE SMOOTH",
"168 353 OFFCURVE",
"55 276 OFFCURVE",
"55 101 CURVE SMOOTH",
"55 -38 OFFCURVE",
"129 -118 OFFCURVE",
"268 -118 CURVE SMOOTH"
);
}
);
width = 837;
}
);
unicode = 10B11;
},
{
glyphname = u10B12;
lastChange = "2017-02-24 13:58:11 +0000";
layers = (
{
layerId = UUID0;
paths = (
{
closed = 1;
nodes = (
"412 -240 OFFCURVE",
"451 -143 OFFCURVE",
"548 -143 CURVE SMOOTH",
"607 -143 OFFCURVE",
"639 -166 OFFCURVE",
"639 -222 CURVE SMOOTH",
"639 -240 LINE",
"707 -240 LINE",
"714 -219 OFFCURVE",
"717 -204 OFFCURVE",
"717 -197 CURVE SMOOTH",
"717 -119 OFFCURVE",
"658 -70 OFFCURVE",
"556 -70 CURVE SMOOTH",
"425 -70 OFFCURVE",
"380 -167 OFFCURVE",
"299 -167 CURVE SMOOTH",
"211 -167 OFFCURVE",
"169 -111 OFFCURVE",
"169 38 CURVE SMOOTH",
"169 67 OFFCURVE",
"164 114 OFFCURVE",
"161 139 CURVE",
"185 103 OFFCURVE",
"226 85 OFFCURVE",
"280 85 CURVE SMOOTH",
"363 85 OFFCURVE",
"405 117 OFFCURVE",
"430 189 CURVE",
"454 115 OFFCURVE",
"495 85 OFFCURVE",
"574 85 CURVE SMOOTH",
"702 85 OFFCURVE",
"756 141 OFFCURVE",
"756 287 CURVE SMOOTH",
"756 326 OFFCURVE",
"746 383 OFFCURVE",
"736 428 CURVE",
"666 428 LINE",
"666 288 LINE SMOOTH",
"666 192 OFFCURVE",
"638 158 OFFCURVE",
"568 158 CURVE SMOOTH",
"503 158 OFFCURVE",
"475 189 OFFCURVE",
"475 295 CURVE SMOOTH",
"475 333 OFFCURVE",
"465 386 OFFCURVE",
"455 428 CURVE",
"385 428 LINE",
"385 288 LINE SMOOTH",
"385 192 OFFCURVE",
"353 158 OFFCURVE",
"275 158 CURVE SMOOTH",
"203 158 OFFCURVE",
"178 196 OFFCURVE",
"178 252 CURVE SMOOTH",
"178 317 OFFCURVE",
"202 395 OFFCURVE",
"214 428 CURVE",
"130 428 LINE",
"102 355 OFFCURVE",
"80 236 OFFCURVE",
"80 81 CURVE SMOOTH",
"80 -146 OFFCURVE",
"138 -240 OFFCURVE",
"292 -240 CURVE SMOOTH"
);
}
);
width = 821;
}
);
unicode = 10B12;
},
{
glyphname = u10B13;
lastChange = "2017-02-24 13:58:11 +0000";
layers = (
{
layerId = UUID0;
paths = (
{
closed = 1;
nodes = (
"174 -240 LINE",
"174 38 LINE SMOOTH",
"174 67 OFFCURVE",
"169 114 OFFCURVE",
"166 139 CURVE",
"188 103 OFFCURVE",
"226 85 OFFCURVE",
"274 85 CURVE SMOOTH",
"350 85 OFFCURVE",
"384 112 OFFCURVE",
"411 179 CURVE",
"440 112 OFFCURVE",
"476 85 OFFCURVE",
"555 85 CURVE SMOOTH",
"682 85 OFFCURVE",
"737 141 OFFCURVE",
"737 286 CURVE SMOOTH",
"737 325 OFFCURVE",
"727 384 OFFCURVE",
"717 428 CURVE",
"647 428 LINE",
"647 287 LINE SMOOTH",
"647 191 OFFCURVE",
"618 158 OFFCURVE",
"548 158 CURVE SMOOTH",
"484 158 OFFCURVE",
"456 189 OFFCURVE",
"456 294 CURVE SMOOTH",
"456 333 OFFCURVE",
"446 386 OFFCURVE",
"436 428 CURVE",
"366 428 LINE",
"366 287 LINE SMOOTH",
"366 191 OFFCURVE",
"337 158 OFFCURVE",
"267 158 CURVE SMOOTH",
"203 158 OFFCURVE",
"175 191 OFFCURVE",
"175 297 CURVE SMOOTH",
"175 333 OFFCURVE",
"165 388 OFFCURVE",
"155 428 CURVE",
"85 428 LINE",
"85 -240 LINE"
);
}
);
width = 802;
}
);
unicode = 10B13;
},
{
glyphname = u10B14;
lastChange = "2017-02-24 13:58:11 +0000";
layers = (
{
layerId = UUID0;
paths = (
{
closed = 1;
nodes = (
"248 -107 LINE",
"186 -32 OFFCURVE",
"144 50 OFFCURVE",
"144 173 CURVE SMOOTH",
"144 309 OFFCURVE",
"174 370 OFFCURVE",
"238 370 CURVE SMOOTH",
"272 370 OFFCURVE",
"295 343 OFFCURVE",
"295 296 CURVE SMOOTH",
"295 233 OFFCURVE",
"333 179 OFFCURVE",
"438 179 CURVE SMOOTH",
"542 179 OFFCURVE",
"594 230 OFFCURVE",
"594 322 CURVE SMOOTH",
"594 350 OFFCURVE",
"584 397 OFFCURVE",
"574 428 CURVE",
"505 428 LINE",
"505 338 LINE SMOOTH",
"505 280 OFFCURVE",
"485 252 OFFCURVE",
"438 252 CURVE SMOOTH",
"394 252 OFFCURVE",
"380 279 OFFCURVE",
"380 312 CURVE SMOOTH",
"380 387 OFFCURVE",
"336 438 OFFCURVE",
"238 438 CURVE SMOOTH",
"117 438 OFFCURVE",
"55 362 OFFCURVE",
"55 173 CURVE SMOOTH",
"55 48 OFFCURVE",
"99 -40 OFFCURVE",
"160 -107 CURVE"
);
}
);
width = 630;
}
);
unicode = 10B14;
},
{
glyphname = u10B15;
lastChange = "2017-02-24 13:58:11 +0000";
layers = (
{
layerId = UUID0;
paths = (
{
closed = 1;
nodes = (
"304 -108 LINE SMOOTH",
"467 -108 OFFCURVE",
"549 -43 OFFCURVE",
"549 173 CURVE SMOOTH",
"549 254 OFFCURVE",
"540 365 OFFCURVE",
"530 428 CURVE",
"460 428 LINE",
"460 155 LINE SMOOTH",
"460 31 OFFCURVE",
"422 -40 OFFCURVE",
"304 -40 CURVE SMOOTH",
"152 -40 LINE",
"196 14 OFFCURVE",
"221 80 OFFCURVE",
"221 187 CURVE SMOOTH",
"221 360 OFFCURVE",
"160 438 OFFCURVE",
"75 438 CURVE SMOOTH",
"47 438 OFFCURVE",
"30 434 OFFCURVE",
"10 425 CURVE",
"29 355 LINE",
"41 361 OFFCURVE",
"53 363 OFFCURVE",
"65 363 CURVE SMOOTH",
"99 363 OFFCURVE",
"132 295 OFFCURVE",
"132 178 CURVE SMOOTH",
"132 74 OFFCURVE",
"106 8 OFFCURVE",
"60 -40 CURVE",
"29 -40 LINE",
"29 -108 LINE"
);
}
);
width = 629;
}
);
unicode = 10B15;
},
{
glyphname = u10B16;
lastChange = "2017-02-24 13:58:11 +0000";
layers = (
{
layerId = UUID0;
paths = (
{
closed = 1;
nodes = (
"519 -240 LINE",
"522 -212 OFFCURVE",
"524 -181 OFFCURVE",
"524 -153 CURVE SMOOTH",
"524 -34 OFFCURVE",
"480 47 OFFCURVE",
"395 47 CURVE SMOOTH",
"280 47 OFFCURVE",
"275 -82 OFFCURVE",
"226 -82 CURVE SMOOTH",
"210 -82 OFFCURVE",
"200 -69 OFFCURVE",
"200 -35 CURVE SMOOTH",
"200 43 OFFCURVE",
"275 138 OFFCURVE",
"275 252 CURVE SMOOTH",
"275 361 OFFCURVE",
"235 438 OFFCURVE",
"136 438 CURVE SMOOTH",
"67 438 OFFCURVE",
"10 394 OFFCURVE",
"10 319 CURVE SMOOTH",
"10 227 OFFCURVE",
"55 158 OFFCURVE",
"148 89 CURVE",
"134 48 OFFCURVE",
"116 14 OFFCURVE",
"116 -47 CURVE SMOOTH",
"116 -103 OFFCURVE",
"149 -156 OFFCURVE",
"217 -156 CURVE SMOOTH",
"337 -156 OFFCURVE",
"337 -31 OFFCURVE",
"385 -31 CURVE SMOOTH",
"414 -31 OFFCURVE",
"435 -67 OFFCURVE",
"435 -162 CURVE SMOOTH",
"435 -184 OFFCURVE",
"433 -213 OFFCURVE",
"431 -240 CURVE"
);
},
{
closed = 1;
nodes = (
"117 222 OFFCURVE",
"99 269 OFFCURVE",
"99 321 CURVE SMOOTH",
"99 353 OFFCURVE",
"116 365 OFFCURVE",
"136 365 CURVE SMOOTH",
"161 365 OFFCURVE",
"188 331 OFFCURVE",
"188 231 CURVE SMOOTH",
"188 213 OFFCURVE",
"179 181 OFFCURVE",
"178 175 CURVE"
);
}
);
width = 548;
}
);
unicode = 10B16;
},
{
glyphname = u10B17;
lastChange = "2017-02-24 13:58:11 +0000";
layers = (
{
layerId = UUID0;
paths = (
{
closed = 1;
nodes = (
"174 -138 LINE",
"174 127 LINE",
"202 98 OFFCURVE",
"240 84 OFFCURVE",
"292 84 CURVE SMOOTH",
"428 84 OFFCURVE",
"503 133 OFFCURVE",
"503 271 CURVE SMOOTH",
"503 313 OFFCURVE",
"493 382 OFFCURVE",
"483 428 CURVE",
"413 428 LINE",
"413 285 LINE SMOOTH",
"413 189 OFFCURVE",
"376 157 OFFCURVE",
"285 157 CURVE SMOOTH",
"187 157 OFFCURVE",
"174 185 OFFCURVE",
"174 282 CURVE SMOOTH",
"174 428 LINE",
"85 428 LINE",
"85 -138 LINE"
);
}
);
width = 568;
}
);
unicode = 10B17;
},
{
glyphname = u10B18;
lastChange = "2017-02-24 13:58:11 +0000";
layers = (
{
layerId = UUID0;
paths = (
{
closed = 1;
nodes = (
"386 -240 OFFCURVE",
"438 -172 OFFCURVE",
"449 -100 CURVE SMOOTH",
"459 -36 OFFCURVE",
"477 -5 OFFCURVE",
"528 -5 CURVE SMOOTH",
"583 -5 OFFCURVE",
"607 -40 OFFCURVE",
"607 -98 CURVE SMOOTH",
"607 -199 LINE",
"675 -199 LINE",
"685 -168 OFFCURVE",
"695 -131 OFFCURVE",
"695 -103 CURVE SMOOTH",
"695 5 OFFCURVE",
"633 68 OFFCURVE",
"528 68 CURVE SMOOTH",
"427 68 OFFCURVE",
"375 0 OFFCURVE",
"364 -76 CURVE SMOOTH",
"355 -137 OFFCURVE",
"327 -167 OFFCURVE",
"283 -167 CURVE SMOOTH",
"197 -167 OFFCURVE",
"144 -85 OFFCURVE",
"144 99 CURVE SMOOTH",
"144 165 OFFCURVE",
"145 208 OFFCURVE",
"150 253 CURVE",
"164 180 OFFCURVE",
"208 128 OFFCURVE",
"313 128 CURVE SMOOTH",
"448 128 OFFCURVE",
"505 185 OFFCURVE",
"505 309 CURVE SMOOTH",
"505 334 OFFCURVE",
"495 391 OFFCURVE",
"485 428 CURVE",
"415 428 LINE",
"415 321 LINE SMOOTH",
"415 237 OFFCURVE",
"393 201 OFFCURVE",
"308 201 CURVE SMOOTH",
"225 201 OFFCURVE",
"189 246 OFFCURVE",
"189 406 CURVE SMOOTH",
"189 428 LINE",
"105 428 LINE",
"83 347 OFFCURVE",
"55 242 OFFCURVE",
"55 89 CURVE SMOOTH",
"55 -138 OFFCURVE",
"132 -240 OFFCURVE",
"287 -240 CURVE SMOOTH"
);
}
);
width = 685;
}
);
unicode = 10B18;
},
{
glyphname = u10B19;
lastChange = "2017-02-24 13:58:11 +0000";
layers = (
{
layerId = UUID0;
paths = (
{
closed = 1;
nodes = (
"134 0 LINE",
"185 65 OFFCURVE",
"211 130 OFFCURVE",
"211 212 CURVE SMOOTH",
"211 225 OFFCURVE",
"210 236 OFFCURVE",
"207 254 CURVE",
"277 196 OFFCURVE",
"391 152 OFFCURVE",
"504 152 CURVE SMOOTH",
"622 152 OFFCURVE",
"726 203 OFFCURVE",
"726 297 CURVE SMOOTH",
"726 384 OFFCURVE",
"643 438 OFFCURVE",
"526 438 CURVE SMOOTH",
"418 438 OFFCURVE",
"326 385 OFFCURVE",
"279 291 CURVE",
"217 327 OFFCURVE",
"168 377 OFFCURVE",
"144 428 CURVE",
"51 428 LINE",
"96 366 OFFCURVE",
"122 305 OFFCURVE",
"122 212 CURVE SMOOTH",
"122 140 OFFCURVE",
"95 64 OFFCURVE",
"50 0 CURVE"
);
},
{
closed = 1;
nodes = (
"451 225 OFFCURVE",
"400 236 OFFCURVE",
"353 254 CURVE",
"379 324 OFFCURVE",
"443 365 OFFCURVE",
"522 365 CURVE SMOOTH",
"604 365 OFFCURVE",
"637 334 OFFCURVE",
"637 297 CURVE SMOOTH",
"637 256 OFFCURVE",
"584 225 OFFCURVE",
"503 225 CURVE SMOOTH"
);
}
);
width = 771;
}
);
unicode = 10B19;
},
{
glyphname = u10B1A;
lastChange = "2017-02-24 13:58:11 +0000";
layers = (
{
layerId = UUID0;
paths = (
{
closed = 1;
nodes = (
"459 -117 OFFCURVE",
"546 -22 OFFCURVE",
"546 158 CURVE SMOOTH",
"546 283 OFFCURVE",
"514 369 OFFCURVE",
"484 428 CURVE",
"396 428 LINE",
"429 350 OFFCURVE",
"457 273 OFFCURVE",
"457 154 CURVE SMOOTH",
"457 21 OFFCURVE",
"404 -45 OFFCURVE",
"298 -45 CURVE SMOOTH",
"194 -45 OFFCURVE",
"144 14 OFFCURVE",
"144 103 CURVE SMOOTH",
"144 256 OFFCURVE",
"315 333 OFFCURVE",
"315 495 CURVE SMOOTH",
"315 558 OFFCURVE",
"293 610 OFFCURVE",
"256 652 CURVE",
"163 652 LINE",
"204 617 OFFCURVE",
"232 555 OFFCURVE",
"232 496 CURVE SMOOTH",
"232 353 OFFCURVE",
"55 276 OFFCURVE",
"55 102 CURVE SMOOTH",
"55 -37 OFFCURVE",
"138 -117 OFFCURVE",
"293 -117 CURVE SMOOTH"
);
}
);
width = 616;
}
);
unicode = 10B1A;
},
{
glyphname = u10B1B;
lastChange = "2017-02-24 13:58:11 +0000";
layers = (
{
layerId = UUID0;
paths = (
{
closed = 1;
nodes = (
"49 -240 LINE SMOOTH",
"316 -240 OFFCURVE",
"351 -93 OFFCURVE",
"351 14 CURVE SMOOTH",
"351 332 OFFCURVE",
"279 440 OFFCURVE",
"190 440 CURVE SMOOTH",
"102 440 OFFCURVE",
"55 326 OFFCURVE",
"55 236 CURVE SMOOTH",
"55 135 OFFCURVE",
"115 89 OFFCURVE",
"262 84 CURVE",
"262 7 LINE SMOOTH",
"262 -64 OFFCURVE",
"257 -167 OFFCURVE",
"33 -167 CURVE SMOOTH",
"-400 -167 LINE",
"-400 -240 LINE"
);
},
{
closed = 1;
nodes = (
"166 164 OFFCURVE",
"144 200 OFFCURVE",
"144 240 CURVE SMOOTH",
"144 306 OFFCURVE",
"167 367 OFFCURVE",
"190 367 CURVE SMOOTH",
"219 367 OFFCURVE",
"246 293 OFFCURVE",
"259 157 CURVE"
);
}
);
width = 426;
}
);
unicode = 10B1B;
},
{
glyphname = u10B1C;
lastChange = "2017-02-24 13:58:11 +0000";
layers = (
{
layerId = UUID0;
paths = (
{
closed = 1;
nodes = (
"479 -59 LINE",
"486 -29 OFFCURVE",
"493 34 OFFCURVE",
"493 87 CURVE SMOOTH",
"493 206 OFFCURVE",
"449 287 OFFCURVE",
"364 287 CURVE SMOOTH",
"249 287 OFFCURVE",
"244 158 OFFCURVE",
"195 158 CURVE SMOOTH",
"179 158 OFFCURVE",
"169 191 OFFCURVE",
"169 329 CURVE SMOOTH",
"169 543 OFFCURVE",
"204 687 OFFCURVE",
"299 687 CURVE SMOOTH",
"325 687 OFFCURVE",
"345 683 OFFCURVE",
"365 677 CURVE",
"365 748 LINE",
"347 755 OFFCURVE",
"322 760 OFFCURVE",
"288 760 CURVE SMOOTH",
"170 760 OFFCURVE",
"80 661 OFFCURVE",
"80 326 CURVE SMOOTH",
"80 137 OFFCURVE",
"118 84 OFFCURVE",
"186 84 CURVE SMOOTH",
"306 84 OFFCURVE",
"306 209 OFFCURVE",
"354 209 CURVE SMOOTH",
"383 209 OFFCURVE",
"404 173 OFFCURVE",
"404 78 CURVE SMOOTH",
"404 39 OFFCURVE",
"400 -20 OFFCURVE",
"393 -59 CURVE"
);
}
);
width = 517;
}
);
unicode = 10B1C;
},
{
glyphname = u10B1D;
lastChange = "2017-02-24 13:58:11 +0000";
layers = (
{
layerId = UUID0;
paths = (
{
closed = 1;
nodes = (
"763 -240 LINE",
"780 -214 OFFCURVE",
"797 -165 OFFCURVE",
"797 -126 CURVE SMOOTH",
"797 -28 OFFCURVE",
"733 28 OFFCURVE",
"613 28 CURVE SMOOTH",
"474 28 OFFCURVE",
"412 -99 OFFCURVE",
"308 -99 CURVE SMOOTH",
"244 -99 OFFCURVE",
"192 -66 OFFCURVE",
"192 44 CURVE SMOOTH",
"192 86 OFFCURVE",
"210 168 OFFCURVE",
"210 212 CURVE SMOOTH",
"210 225 OFFCURVE",
"209 236 OFFCURVE",
"206 254 CURVE",
"276 196 OFFCURVE",
"390 152 OFFCURVE",
"503 152 CURVE SMOOTH",
"621 152 OFFCURVE",
"725 202 OFFCURVE",
"725 296 CURVE SMOOTH",
"725 384 OFFCURVE",
"642 438 OFFCURVE",
"525 438 CURVE SMOOTH",
"412 438 OFFCURVE",
"312 359 OFFCURVE",
"278 290 CURVE",
"216 327 OFFCURVE",
"167 377 OFFCURVE",
"143 428 CURVE",
"50 428 LINE",
"95 366 OFFCURVE",
"121 304 OFFCURVE",
"121 212 CURVE SMOOTH",
"121 176 OFFCURVE",
"103 82 OFFCURVE",
"103 52 CURVE SMOOTH",
"103 -122 OFFCURVE",
"180 -177 OFFCURVE",
"305 -177 CURVE SMOOTH",
"449 -177 OFFCURVE",
"498 -50 OFFCURVE",
"605 -50 CURVE SMOOTH",
"674 -50 OFFCURVE",
"708 -79 OFFCURVE",
"708 -137 CURVE SMOOTH",
"708 -177 OFFCURVE",
"695 -207 OFFCURVE",
"677 -240 CURVE"
);
},
{
closed = 1;
nodes = (
"450 225 OFFCURVE",
"399 236 OFFCURVE",
"352 254 CURVE",
"370 303 OFFCURVE",
"439 365 OFFCURVE",
"521 365 CURVE SMOOTH",
"603 365 OFFCURVE",
"636 334 OFFCURVE",
"636 296 CURVE SMOOTH",
"636 255 OFFCURVE",
"583 225 OFFCURVE",
"502 225 CURVE SMOOTH"
);
}
);
width = 821;
}
);
unicode = 10B1D;
},
{
glyphname = u10B1E;
lastChange = "2017-02-24 13:58:11 +0000";
layers = (
{
layerId = UUID0;
paths = (
{
closed = 1;
nodes = (
"484 -118 OFFCURVE",
"576 -22 OFFCURVE",
"576 185 CURVE SMOOTH",
"576 428 LINE",
"487 428 LINE",
"487 189 LINE SMOOTH",
"487 29 OFFCURVE",
"424 -46 OFFCURVE",
"297 -46 CURVE SMOOTH",
"214 -46 OFFCURVE",
"178 26 OFFCURVE",
"163 94 CURVE",
"209 94 LINE SMOOTH",
"322 94 OFFCURVE",
"346 147 OFFCURVE",
"346 209 CURVE SMOOTH",
"346 359 OFFCURVE",
"286 438 OFFCURVE",
"205 438 CURVE SMOOTH",
"131 438 OFFCURVE",
"65 349 OFFCURVE",
"65 206 CURVE SMOOTH",
"65 -1 OFFCURVE",
"142 -118 OFFCURVE",
"297 -118 CURVE SMOOTH"
);
},
{
closed = 1;
nodes = (
"154 175 OFFCURVE",
"154 188 OFFCURVE",
"154 200 CURVE SMOOTH",
"154 298 OFFCURVE",
"171 365 OFFCURVE",
"206 365 CURVE SMOOTH",
"239 365 OFFCURVE",
"257 308 OFFCURVE",
"257 211 CURVE SMOOTH",
"257 180 OFFCURVE",
"241 162 OFFCURVE",
"199 162 CURVE SMOOTH",
"155 162 LINE"
);
}
);
width = 651;
}
);
unicode = 10B1E;
},
{
glyphname = u10B1F;
lastChange = "2017-02-24 13:58:11 +0000";
layers = (
{
layerId = UUID0;
paths = (
{
closed = 1;
nodes = (
"476 -118 OFFCURVE",
"576 -18 OFFCURVE",
"576 233 CURVE SMOOTH",
"576 648 OFFCURVE",
"519 760 OFFCURVE",
"368 760 CURVE SMOOTH",
"334 760 OFFCURVE",
"309 755 OFFCURVE",
"291 748 CURVE",
"291 677 LINE",
"311 683 OFFCURVE",
"331 687 OFFCURVE",
"357 687 CURVE SMOOTH",
"452 687 OFFCURVE",
"487 584 OFFCURVE",
"487 233 CURVE SMOOTH",
"487 36 OFFCURVE",
"424 -45 OFFCURVE",
"297 -45 CURVE SMOOTH",
"214 -45 OFFCURVE",
"178 26 OFFCURVE",
"163 94 CURVE",
"209 94 LINE SMOOTH",
"322 94 OFFCURVE",
"346 147 OFFCURVE",
"346 209 CURVE SMOOTH",
"346 359 OFFCURVE",
"286 438 OFFCURVE",
"205 438 CURVE SMOOTH",
"131 438 OFFCURVE",
"65 349 OFFCURVE",
"65 206 CURVE SMOOTH",
"65 -1 OFFCURVE",
"142 -118 OFFCURVE",
"297 -118 CURVE SMOOTH"
);
},
{
closed = 1;
nodes = (
"154 175 OFFCURVE",
"154 188 OFFCURVE",
"154 200 CURVE SMOOTH",
"154 298 OFFCURVE",
"171 365 OFFCURVE",
"206 365 CURVE SMOOTH",
"239 365 OFFCURVE",
"257 308 OFFCURVE",
"257 211 CURVE SMOOTH",
"257 180 OFFCURVE",
"241 162 OFFCURVE",
"199 162 CURVE SMOOTH",
"155 162 LINE"
);
}
);
width = 651;
}
);
unicode = 10B1F;
},
{
glyphname = u10B20;
lastChange = "2017-02-24 13:58:11 +0000";
layers = (
{
layerId = UUID0;
paths = (
{
closed = 1;
nodes = (
"-84 -240 LINE SMOOTH",
"121 -240 OFFCURVE",
"220 -160 OFFCURVE",
"220 -15 CURVE SMOOTH",
"220 80 OFFCURVE",
"181 143 OFFCURVE",
"181 260 CURVE SMOOTH",
"181 328 OFFCURVE",
"189 362 OFFCURVE",
"210 428 CURVE",
"125 428 LINE",
"104 366 OFFCURVE",
"92 319 OFFCURVE",
"92 263 CURVE SMOOTH",
"92 136 OFFCURVE",
"128 67 OFFCURVE",
"128 -6 CURVE SMOOTH",
"128 -115 OFFCURVE",
"56 -167 OFFCURVE",
"-100 -167 CURVE SMOOTH",
"-740 -167 LINE",
"-740 -240 LINE"
);
}
);
width = 280;
}
);
unicode = 10B20;
},
{
glyphname = u10B21;
lastChange = "2017-02-24 13:58:11 +0000";
layers = (
{
layerId = UUID0;
paths = (
{
closed = 1;
nodes = (
"375 -118 OFFCURVE",
"425 -91 OFFCURVE",
"472 -14 CURVE",
"508 -82 OFFCURVE",
"551 -118 OFFCURVE",
"634 -118 CURVE SMOOTH",
"776 -118 OFFCURVE",
"850 -32 OFFCURVE",
"850 97 CURVE SMOOTH",
"850 194 OFFCURVE",
"815 243 OFFCURVE",
"815 308 CURVE SMOOTH",
"815 419 OFFCURVE",
"876 487 OFFCURVE",
"1011 487 CURVE",
"962 552 LINE",
"802 541 OFFCURVE",
"726 439 OFFCURVE",
"726 306 CURVE SMOOTH",
"726 235 OFFCURVE",
"761 179 OFFCURVE",
"761 99 CURVE SMOOTH",
"761 16 OFFCURVE",
"722 -45 OFFCURVE",
"640 -45 CURVE SMOOTH",
"560 -45 OFFCURVE",
"526 24 OFFCURVE",
"526 138 CURVE SMOOTH",
"526 428 LINE",
"437 428 LINE",
"437 188 LINE SMOOTH",
"437 28 OFFCURVE",
"397 -46 OFFCURVE",
"289 -46 CURVE SMOOTH",
"205 -46 OFFCURVE",
"173 25 OFFCURVE",
"161 94 CURVE",
"209 94 LINE SMOOTH",
"322 94 OFFCURVE",
"346 147 OFFCURVE",
"346 209 CURVE SMOOTH",
"346 359 OFFCURVE",
"286 438 OFFCURVE",
"205 438 CURVE SMOOTH",
"131 438 OFFCURVE",
"65 349 OFFCURVE",
"65 206 CURVE SMOOTH",
"65 -1 OFFCURVE",
"130 -118 OFFCURVE",
"285 -118 CURVE SMOOTH"
);
},
{
closed = 1;
nodes = (
"154 200 LINE SMOOTH",
"154 298 OFFCURVE",
"171 365 OFFCURVE",
"206 365 CURVE SMOOTH",
"239 365 OFFCURVE",
"257 308 OFFCURVE",
"257 211 CURVE SMOOTH",
"257 180 OFFCURVE",
"241 162 OFFCURVE",
"199 162 CURVE SMOOTH",
"154 162 LINE"
);
}
);
width = 915;
}
);
unicode = 10B21;
},
{
glyphname = u10B22;
lastChange = "2017-02-24 13:58:11 +0000";
layers = (
{
layerId = UUID0;
paths = (
{
closed = 1;
nodes = (
"204 -216 OFFCURVE",
"259 -160 OFFCURVE",
"259 -53 CURVE SMOOTH",
"259 24 OFFCURVE",
"219 69 OFFCURVE",
"154 100 CURVE",
"229 128 OFFCURVE",
"259 179 OFFCURVE",
"259 253 CURVE SMOOTH",
"259 368 OFFCURVE",
"181 438 OFFCURVE",
"50 438 CURVE",
"50 360 LINE",
"133 360 OFFCURVE",
"167 318 OFFCURVE",
"167 252 CURVE SMOOTH",
"167 168 OFFCURVE",
"133 146 OFFCURVE",
"50 142 CURVE",
"50 64 LINE",
"133 64 OFFCURVE",
"167 21 OFFCURVE",
"167 -52 CURVE SMOOTH",
"167 -121 OFFCURVE",
"136 -151 OFFCURVE",
"60 -169 CURVE",
"89 -240 LINE"
);
}
);
width = 314;
}
);
unicode = 10B22;
},
{
glyphname = u10B23;
lastChange = "2017-02-24 13:58:11 +0000";
layers = (
{
layerId = UUID0;
paths = (
{
closed = 1;
nodes = (
"581 -118 OFFCURVE",
"663 -32 OFFCURVE",
"663 112 CURVE SMOOTH",
"663 194 OFFCURVE",
"628 242 OFFCURVE",
"628 307 CURVE SMOOTH",
"628 343 OFFCURVE",
"643 397 OFFCURVE",
"663 428 CURVE",
"574 428 LINE",
"553 392 OFFCURVE",
"539 347 OFFCURVE",
"539 305 CURVE SMOOTH",
"539 234 OFFCURVE",
"574 188 OFFCURVE",
"574 113 CURVE SMOOTH",
"574 16 OFFCURVE",
"528 -45 OFFCURVE",
"430 -45 CURVE SMOOTH",
"335 -45 OFFCURVE",
"294 24 OFFCURVE",
"294 138 CURVE SMOOTH",
"294 428 LINE",
"206 428 LINE",
"206 377 LINE SMOOTH",
"206 263 OFFCURVE",
"174 217 OFFCURVE",
"95 217 CURVE SMOOTH",
"10 217 LINE",
"10 154 LINE",
"35 148 OFFCURVE",
"62 144 OFFCURVE",
"97 144 CURVE SMOOTH",
"144 144 OFFCURVE",
"180 159 OFFCURVE",
"206 184 CURVE",
"206 135 LINE SMOOTH",
"206 -8 OFFCURVE",
"254 -118 OFFCURVE",
"423 -118 CURVE SMOOTH"
);
}
);
width = 728;
}
);
unicode = 10B23;
},
{
glyphname = u10B24;
lastChange = "2017-02-24 13:58:11 +0000";
layers = (
{
layerId = UUID0;
paths = (
{
closed = 1;
nodes = (
"149 -240 LINE",
"149 -130 LINE",
"217 -104 OFFCURVE",
"259 -62 OFFCURVE",
"259 6 CURVE SMOOTH",
"259 69 OFFCURVE",
"219 106 OFFCURVE",
"154 131 CURVE",
"229 157 OFFCURVE",
"259 203 OFFCURVE",
"259 270 CURVE SMOOTH",
"259 375 OFFCURVE",
"181 438 OFFCURVE",
"50 438 CURVE",
"50 360 LINE",
"133 360 OFFCURVE",
"167 323 OFFCURVE",
"167 264 CURVE SMOOTH",
"167 189 OFFCURVE",
"133 169 OFFCURVE",
"50 166 CURVE",
"50 99 LINE",
"133 99 OFFCURVE",
"167 66 OFFCURVE",
"167 9 CURVE SMOOTH",
"167 -44 OFFCURVE",
"136 -67 OFFCURVE",
"60 -81 CURVE",
"60 -240 LINE"
);
}
);
width = 314;
}
);
unicode = 10B24;
},
{
glyphname = u10B25;
lastChange = "2017-02-24 13:58:11 +0000";
layers = (
{
layerId = UUID0;
paths = (
{
closed = 1;
nodes = (
"174 -108 LINE",
"174 428 LINE",
"85 428 LINE",
"85 -108 LINE"
);
}
);
width = 259;
}
);
unicode = 10B25;
},
{
glyphname = u10B26;
lastChange = "2017-02-24 13:58:11 +0000";
layers = (
{
layerId = UUID0;
paths = (
{
closed = 1;
nodes = (
"319 -240 LINE",
"205 -102 OFFCURVE",
"179 -16 OFFCURVE",
"179 275 CURVE SMOOTH",
"179 535 OFFCURVE",
"135 656 OFFCURVE",
"33 760 CURVE",
"-50 760 LINE",
"69 620 OFFCURVE",
"90 540 OFFCURVE",
"90 274 CURVE SMOOTH",
"90 -15 OFFCURVE",
"133 -141 OFFCURVE",
"237 -240 CURVE"
);
}
);
width = 269;
}
);
unicode = 10B26;
},
{
glyphname = u10B27;
lastChange = "2017-02-24 13:58:11 +0000";
layers = (
{
layerId = UUID0;
paths = (
{
closed = 1;
nodes = (
"429 -240 LINE",
"380 -180 OFFCURVE",
"331 -107 OFFCURVE",
"306 0 CURVE",
"628 0 LINE",
"628 78 LINE",
"297 78 LINE",
"292 118 OFFCURVE",
"289 162 OFFCURVE",
"289 212 CURVE",
"317 192 OFFCURVE",
"358 179 OFFCURVE",
"411 179 CURVE SMOOTH",
"500 179 OFFCURVE",
"526 200 OFFCURVE",
"552 238 CURVE",
"583 199 OFFCURVE",
"640 179 OFFCURVE",
"704 179 CURVE SMOOTH",
"863 179 OFFCURVE",
"894 237 OFFCURVE",
"894 322 CURVE SMOOTH",
"894 350 OFFCURVE",
"884 397 OFFCURVE",
"874 428 CURVE",
"804 428 LINE",
"804 338 LINE SMOOTH",
"804 277 OFFCURVE",
"787 257 OFFCURVE",
"701 257 CURVE SMOOTH",
"644 257 OFFCURVE",
"595 274 OFFCURVE",
"595 331 CURVE SMOOTH",
"595 359 OFFCURVE",
"587 402 OFFCURVE",
"575 428 CURVE",
"505 428 LINE",
"505 338 LINE SMOOTH",
"505 277 OFFCURVE",
"488 252 OFFCURVE",
"402 252 CURVE SMOOTH",
"321 252 OFFCURVE",
"289 292 OFFCURVE",
"289 422 CURVE SMOOTH",
"289 428 LINE",
"200 428 LINE",
"200 274 LINE SMOOTH",
"200 207 OFFCURVE",
"200 141 OFFCURVE",
"207 78 CURVE",
"37 78 LINE",
"37 -100 LINE",
"126 -100 LINE",
"126 0 LINE",
"215 0 LINE",
"234 -89 OFFCURVE",
"275 -171 OFFCURVE",
"347 -240 CURVE"
);
}
);
width = 956;
}
);
unicode = 10B27;
},
{
glyphname = u10B28;
lastChange = "2017-02-24 13:58:11 +0000";
layers = (
{
layerId = UUID0;
paths = (
{
closed = 1;
nodes = (
"345 84 OFFCURVE",
"416 212 OFFCURVE",
"416 304 CURVE SMOOTH",
"416 366 OFFCURVE",
"385 428 OFFCURVE",
"268 428 CURVE SMOOTH",
"174 428 LINE",
"174 581 OFFCURVE",
"226 687 OFFCURVE",
"304 687 CURVE SMOOTH",
"330 687 OFFCURVE",
"350 683 OFFCURVE",
"370 677 CURVE",
"370 748 LINE",
"352 755 OFFCURVE",
"327 760 OFFCURVE",
"293 760 CURVE SMOOTH",
"146 760 OFFCURVE",
"93 593 OFFCURVE",
"86 428 CURVE",
"20 428 LINE",
"20 360 LINE",
"85 360 LINE",
"92 174 OFFCURVE",
"167 84 OFFCURVE",
"250 84 CURVE SMOOTH"
);
},
{
closed = 1;
nodes = (
"209 157 OFFCURVE",
"174 248 OFFCURVE",
"174 360 CURVE",
"264 360 LINE SMOOTH",
"303 360 OFFCURVE",
"327 333 OFFCURVE",
"327 302 CURVE SMOOTH",
"327 229 OFFCURVE",
"287 157 OFFCURVE",
"251 157 CURVE SMOOTH"
);
}
);
width = 466;
}
);
unicode = 10B28;
},
{
glyphname = u10B29;
lastChange = "2017-02-24 13:58:11 +0000";
layers = (
{
layerId = UUID0;
paths = (
{
closed = 1;
nodes = (
"337 -59 LINE",
"291 -46 OFFCURVE",
"263 -2 OFFCURVE",
"263 41 CURVE SMOOTH",
"263 59 OFFCURVE",
"274 79 OFFCURVE",
"284 89 CURVE",
"361 115 OFFCURVE",
"416 223 OFFCURVE",
"416 304 CURVE SMOOTH",
"416 366 OFFCURVE",
"385 428 OFFCURVE",
"268 428 CURVE SMOOTH",
"174 428 LINE",
"174 581 OFFCURVE",
"226 687 OFFCURVE",
"304 687 CURVE SMOOTH",
"330 687 OFFCURVE",
"350 683 OFFCURVE",
"370 677 CURVE",
"370 748 LINE",
"352 755 OFFCURVE",
"327 760 OFFCURVE",
"293 760 CURVE SMOOTH",
"146 760 OFFCURVE",
"93 593 OFFCURVE",
"86 428 CURVE",
"20 428 LINE",
"20 360 LINE",
"85 360 LINE",
"90 209 OFFCURVE",
"141 121 OFFCURVE",
"204 93 CURVE",
"194 76 OFFCURVE",
"189 56 OFFCURVE",
"189 36 CURVE SMOOTH",
"189 -37 OFFCURVE",
"228 -99 OFFCURVE",
"312 -114 CURVE"
);
},
{
closed = 1;
nodes = (
"209 157 OFFCURVE",
"174 248 OFFCURVE",
"174 360 CURVE",
"264 360 LINE SMOOTH",
"303 360 OFFCURVE",
"327 333 OFFCURVE",
"327 302 CURVE SMOOTH",
"327 229 OFFCURVE",
"287 157 OFFCURVE",
"251 157 CURVE SMOOTH"
);
}
);
width = 466;
}
);
unicode = 10B29;
},
{
glyphname = u10B2A;
lastChange = "2017-02-24 13:58:11 +0000";
layers = (
{
layerId = UUID0;
paths = (
{
closed = 1;
nodes = (
"718 -58 LINE",
"701 -47 OFFCURVE",
"672 -29 OFFCURVE",
"620 -29 CURVE SMOOTH",
"559 -29 OFFCURVE",
"520 -45 OFFCURVE",
"441 -45 CURVE SMOOTH",
"327 -45 OFFCURVE",
"273 36 OFFCURVE",
"273 154 CURVE SMOOTH",
"273 278 OFFCURVE",
"340 365 OFFCURVE",
"543 365 CURVE SMOOTH",
"625 365 OFFCURVE",
"682 347 OFFCURVE",
"738 324 CURVE",
"769 396 LINE",
"704 422 OFFCURVE",
"635 438 OFFCURVE",
"543 438 CURVE SMOOTH",
"319 438 OFFCURVE",
"198 336 OFFCURVE",
"183 188 CURVE",
"166 195 OFFCURVE",
"142 200 OFFCURVE",
"124 200 CURVE SMOOTH",
"44 200 OFFCURVE",
"10 154 OFFCURVE",
"10 97 CURVE SMOOTH",
"10 72 OFFCURVE",
"17 46 OFFCURVE",
"25 31 CURVE",
"84 46 LINE",
"78 58 OFFCURVE",
"72 78 OFFCURVE",
"72 96 CURVE SMOOTH",
"72 125 OFFCURVE",
"88 148 OFFCURVE",
"129 148 CURVE SMOOTH",
"145 148 OFFCURVE",
"167 142 OFFCURVE",
"182 133 CURVE",
"190 -17 OFFCURVE",
"280 -118 OFFCURVE",
"443 -118 CURVE SMOOTH",
"524 -118 OFFCURVE",
"557 -103 OFFCURVE",
"615 -103 CURVE SMOOTH",
"675 -103 OFFCURVE",
"705 -127 OFFCURVE",
"718 -138 CURVE"
);
}
);
width = 799;
}
);
unicode = 10B2A;
},
{
glyphname = u10B2B;
lastChange = "2017-02-24 13:58:11 +0000";
layers = (
{
layerId = UUID0;
paths = (
{
closed = 1;
nodes = (
"75 -240 LINE",
"134 -157 OFFCURVE",
"174 -47 OFFCURVE",
"174 154 CURVE SMOOTH",
"174 194 OFFCURVE",
"169 248 OFFCURVE",
"166 273 CURVE",
"182 237 OFFCURVE",
"211 219 OFFCURVE",
"246 219 CURVE SMOOTH",
"307 219 OFFCURVE",
"335 245 OFFCURVE",
"349 296 CURVE",
"369 238 OFFCURVE",
"406 219 OFFCURVE",
"450 219 CURVE SMOOTH",
"476 219 OFFCURVE",
"500 228 OFFCURVE",
"517 243 CURVE",
"516 225 OFFCURVE",
"516 205 OFFCURVE",
"516 184 CURVE SMOOTH",
"516 -23 OFFCURVE",
"592 -117 OFFCURVE",
"747 -117 CURVE SMOOTH",
"902 -117 OFFCURVE",
"978 -23 OFFCURVE",
"978 184 CURVE SMOOTH",
"978 283 OFFCURVE",
"967 349 OFFCURVE",
"946 428 CURVE",
"858 428 LINE",
"878 348 OFFCURVE",
"889 281 OFFCURVE",
"889 188 CURVE SMOOTH",
"889 28 OFFCURVE",
"842 -45 OFFCURVE",
"747 -45 CURVE SMOOTH",
"652 -45 OFFCURVE",
"605 28 OFFCURVE",
"605 188 CURVE SMOOTH",
"605 281 OFFCURVE",
"616 348 OFFCURVE",
"636 428 CURVE",
"548 428 LINE",
"545 417 LINE SMOOTH",
"519 320 OFFCURVE",
"505 297 OFFCURVE",
"453 297 CURVE SMOOTH",
"422 297 OFFCURVE",
"391 311 OFFCURVE",
"391 354 CURVE SMOOTH",
"391 375 OFFCURVE",
"383 408 OFFCURVE",
"371 428 CURVE",
"302 428 LINE",
"302 373 LINE SMOOTH",
"302 317 OFFCURVE",
"283 292 OFFCURVE",
"237 292 CURVE SMOOTH",
"194 292 OFFCURVE",
"175 308 OFFCURVE",
"175 362 CURVE SMOOTH",
"175 380 OFFCURVE",
"167 411 OFFCURVE",
"155 428 CURVE",
"85 428 LINE",
"85 176 LINE SMOOTH",
"85 -17 OFFCURVE",
"68 -102 OFFCURVE",
"-7 -240 CURVE"
);
}
);
width = 1048;
}
);
unicode = 10B2B;
},
{
glyphname = u10B2C;
lastChange = "2017-02-24 13:58:11 +0000";
layers = (
{
layerId = UUID0;
paths = (
{
closed = 1;
nodes = (
"319 -146 LINE",
"319 78 LINE",
"451 95 OFFCURVE",
"520 188 OFFCURVE",
"520 349 CURVE SMOOTH",
"520 475 OFFCURVE",
"500 543 OFFCURVE",
"478 620 CURVE",
"390 620 LINE",
"410 540 OFFCURVE",
"431 473 OFFCURVE",
"431 351 CURVE SMOOTH",
"431 220 OFFCURVE",
"378 146 OFFCURVE",
"272 146 CURVE SMOOTH",
"186 146 OFFCURVE",
"144 205 OFFCURVE",
"144 324 CURVE SMOOTH",
"144 448 OFFCURVE",
"215 525 OFFCURVE",
"215 648 CURVE SMOOTH",
"215 685 OFFCURVE",
"204 724 OFFCURVE",
"197 740 CURVE",
"116 740 LINE",
"119 723 OFFCURVE",
"132 705 OFFCURVE",
"132 650 CURVE SMOOTH",
"132 545 OFFCURVE",
"55 468 OFFCURVE",
"55 329 CURVE SMOOTH",
"55 167 OFFCURVE",
"115 90 OFFCURVE",
"230 77 CURVE",
"230 -146 LINE"
);
}
);
width = 590;
}
);
unicode = 10B2C;
},
{
glyphname = u10B2D;
lastChange = "2017-02-24 13:58:11 +0000";
layers = (
{
layerId = UUID0;
paths = (
{
closed = 1;
nodes = (
"260 94 LINE",
"260 113 LINE SMOOTH",
"260 623 OFFCURVE",
"203 760 OFFCURVE",
"52 760 CURVE SMOOTH",
"18 760 OFFCURVE",
"-7 755 OFFCURVE",
"-25 748 CURVE",
"-25 677 LINE",
"-5 683 OFFCURVE",
"15 687 OFFCURVE",
"41 687 CURVE SMOOTH",
"136 687 OFFCURVE",
"171 557 OFFCURVE",
"171 113 CURVE SMOOTH",
"171 94 LINE"
);
}
);
width = 340;
}
);
unicode = 10B2D;
},
{
glyphname = u10B2E;
lastChange = "2017-02-24 13:58:11 +0000";
layers = (
{
layerId = UUID0;
paths = (
{
closed = 1;
nodes = (
"188 -240 OFFCURVE",
"280 -151 OFFCURVE",
"280 103 CURVE SMOOTH",
"280 137 OFFCURVE",
"279 171 OFFCURVE",
"278 203 CURVE",
"301 188 OFFCURVE",
"329 179 OFFCURVE",
"360 179 CURVE SMOOTH",
"471 179 OFFCURVE",
"534 251 OFFCURVE",
"534 353 CURVE SMOOTH",
"534 468 OFFCURVE",
"465 546 OFFCURVE",
"359 546 CURVE SMOOTH",
"309 546 OFFCURVE",
"272 526 OFFCURVE",
"246 497 CURVE",
"219 697 OFFCURVE",
"154 760 OFFCURVE",
"52 760 CURVE SMOOTH",
"18 760 OFFCURVE",
"-7 755 OFFCURVE",
"-25 748 CURVE",
"-25 677 LINE",
"-5 683 OFFCURVE",
"15 687 OFFCURVE",
"41 687 CURVE SMOOTH",
"90 687 OFFCURVE",
"128 653 OFFCURVE",
"149 558 CURVE SMOOTH",
"176 434 OFFCURVE",
"191 269 OFFCURVE",
"191 103 CURVE SMOOTH",
"191 -108 OFFCURVE",
"128 -167 OFFCURVE",
"16 -167 CURVE",
"16 -240 LINE"
);
},
{
closed = 1;
nodes = (
"307 252 OFFCURVE",
"267 300 OFFCURVE",
"267 374 CURVE SMOOTH",
"267 443 OFFCURVE",
"307 473 OFFCURVE",
"359 473 CURVE SMOOTH",
"407 473 OFFCURVE",
"450 430 OFFCURVE",
"450 357 CURVE SMOOTH",
"450 282 OFFCURVE",
"410 252 OFFCURVE",
"360 252 CURVE SMOOTH"
);
}
);
width = 579;
}
);
unicode = 10B2E;
},
{
glyphname = u10B2F;
lastChange = "2017-02-24 13:58:11 +0000";
layers = (
{
layerId = UUID0;
paths = (
{
closed = 1;
nodes = (
"279 -108 LINE SMOOTH",
"470 -108 OFFCURVE",
"549 -23 OFFCURVE",
"549 158 CURVE SMOOTH",
"549 283 OFFCURVE",
"505 361 OFFCURVE",
"444 428 CURVE",
"356 428 LINE",
"418 353 OFFCURVE",
"460 281 OFFCURVE",
"460 158 CURVE SMOOTH",
"460 28 OFFCURVE",
"410 -40 OFFCURVE",
"278 -40 CURVE SMOOTH",
"142 -40 LINE",
"185 9 OFFCURVE",
"231 80 OFFCURVE",
"231 187 CURVE SMOOTH",
"231 365 OFFCURVE",
"153 438 OFFCURVE",
"75 438 CURVE SMOOTH",
"53 438 OFFCURVE",
"30 434 OFFCURVE",
"10 425 CURVE",
"29 355 LINE",
"41 361 OFFCURVE",
"53 363 OFFCURVE",
"65 363 CURVE SMOOTH",
"104 363 OFFCURVE",
"142 303 OFFCURVE",
"142 178 CURVE SMOOTH",
"142 62 OFFCURVE",
"104 0 OFFCURVE",
"60 -40 CURVE",
"29 -40 LINE",
"29 -108 LINE"
);
}
);
width = 604;
}
);
unicode = 10B2F;
},
{
glyphname = u10B30;
lastChange = "2017-02-24 13:58:11 +0000";
layers = (
{
layerId = UUID0;
paths = (
{
closed = 1;
nodes = (
"32 -240 LINE",
"136 -141 OFFCURVE",
"179 -15 OFFCURVE",
"179 274 CURVE SMOOTH",
"179 540 OFFCURVE",
"200 620 OFFCURVE",
"319 760 CURVE",
"236 760 LINE",
"134 656 OFFCURVE",
"90 535 OFFCURVE",
"90 275 CURVE SMOOTH",
"90 -16 OFFCURVE",
"64 -102 OFFCURVE",
"-50 -240 CURVE"
);
}
);
width = 269;
}
);
unicode = 10B30;
},
{
glyphname = u10B31;
lastChange = "2017-02-24 13:58:11 +0000";
layers = (
{
layerId = UUID0;
paths = (
{
closed = 1;
nodes = (
"775 -118 OFFCURVE",
"851 -23 OFFCURVE",
"851 184 CURVE SMOOTH",
"851 283 OFFCURVE",
"840 349 OFFCURVE",
"819 428 CURVE",
"731 428 LINE",
"751 348 OFFCURVE",
"762 281 OFFCURVE",
"762 188 CURVE SMOOTH",
"762 28 OFFCURVE",
"715 -46 OFFCURVE",
"620 -46 CURVE SMOOTH",
"525 -46 OFFCURVE",
"478 28 OFFCURVE",
"478 188 CURVE SMOOTH",
"478 281 OFFCURVE",
"489 348 OFFCURVE",
"509 428 CURVE",
"421 428 LINE",
"418 417 LINE SMOOTH",
"393 320 OFFCURVE",
"378 297 OFFCURVE",
"326 297 CURVE SMOOTH",
"295 297 OFFCURVE",
"264 311 OFFCURVE",
"264 354 CURVE SMOOTH",
"264 375 OFFCURVE",
"256 408 OFFCURVE",
"244 428 CURVE",
"175 428 LINE",
"175 373 LINE SMOOTH",
"175 317 OFFCURVE",
"156 292 OFFCURVE",
"110 292 CURVE SMOOTH",
"20 292 LINE",
"20 229 LINE",
"50 222 OFFCURVE",
"92 219 OFFCURVE",
"119 219 CURVE SMOOTH",
"180 219 OFFCURVE",
"208 245 OFFCURVE",
"222 296 CURVE",
"242 238 OFFCURVE",
"279 219 OFFCURVE",
"323 219 CURVE SMOOTH",
"349 219 OFFCURVE",
"373 228 OFFCURVE",
"390 243 CURVE",
"389 225 OFFCURVE",
"389 205 OFFCURVE",
"389 184 CURVE SMOOTH",
"389 -23 OFFCURVE",
"465 -118 OFFCURVE",
"620 -118 CURVE SMOOTH"
);
}
);
width = 921;
}
);
unicode = 10B31;
},
{
glyphname = u10B32;
lastChange = "2017-02-24 13:58:11 +0000";
layers = (
{
layerId = UUID0;
paths = (
{
closed = 1;
nodes = (
"404 -118 OFFCURVE",
"461 -84 OFFCURVE",
"499 -12 CURVE",
"523 -81 OFFCURVE",
"584 -118 OFFCURVE",
"670 -118 CURVE SMOOTH",
"803 -118 OFFCURVE",
"873 -23 OFFCURVE",
"873 157 CURVE SMOOTH",
"873 283 OFFCURVE",
"841 369 OFFCURVE",
"811 428 CURVE",
"723 428 LINE",
"756 350 OFFCURVE",
"784 273 OFFCURVE",
"784 153 CURVE SMOOTH",
"784 20 OFFCURVE",
"744 -46 OFFCURVE",
"664 -46 CURVE SMOOTH",
"592 -46 OFFCURVE",
"548 2 OFFCURVE",
"548 118 CURVE SMOOTH",
"548 428 LINE",
"459 428 LINE",
"459 119 LINE SMOOTH",
"459 13 OFFCURVE",
"405 -46 OFFCURVE",
"297 -46 CURVE SMOOTH",
"213 -46 OFFCURVE",
"178 25 OFFCURVE",
"163 94 CURVE",
"209 94 LINE SMOOTH",
"322 94 OFFCURVE",
"346 147 OFFCURVE",
"346 209 CURVE SMOOTH",
"346 360 OFFCURVE",
"286 439 OFFCURVE",
"205 439 CURVE SMOOTH",
"131 439 OFFCURVE",
"65 350 OFFCURVE",
"65 206 CURVE SMOOTH",
"65 -1 OFFCURVE",
"142 -118 OFFCURVE",
"297 -118 CURVE SMOOTH"
);
},
{
closed = 1;
nodes = (
"154 175 OFFCURVE",
"154 188 OFFCURVE",
"154 200 CURVE SMOOTH",
"154 299 OFFCURVE",
"171 366 OFFCURVE",
"206 366 CURVE SMOOTH",
"239 366 OFFCURVE",
"257 309 OFFCURVE",
"257 211 CURVE SMOOTH",
"257 180 OFFCURVE",
"241 162 OFFCURVE",
"199 162 CURVE SMOOTH",
"155 162 LINE"
);
}
);
width = 943;
}
);
unicode = 10B32;
},
{
glyphname = u10B33;
lastChange = "2017-02-24 13:58:11 +0000";
layers = (
{
layerId = UUID0;
paths = (
{
closed = 1;
nodes = (
"990 -118 OFFCURVE",
"1066 -24 OFFCURVE",
"1066 184 CURVE SMOOTH",
"1066 283 OFFCURVE",
"1055 349 OFFCURVE",
"1034 428 CURVE",
"946 428 LINE",
"966 348 OFFCURVE",
"977 281 OFFCURVE",
"977 188 CURVE SMOOTH",
"977 27 OFFCURVE",
"930 -46 OFFCURVE",
"835 -46 CURVE SMOOTH",
"740 -46 OFFCURVE",
"693 27 OFFCURVE",
"693 188 CURVE SMOOTH",
"693 281 OFFCURVE",
"704 348 OFFCURVE",
"724 428 CURVE",
"636 428 LINE",
"635 424 OFFCURVE",
"631 410 OFFCURVE",
"629 398 CURVE SMOOTH",
"610 286 OFFCURVE",
"591 252 OFFCURVE",
"531 252 CURVE SMOOTH",
"498 252 OFFCURVE",
"479 277 OFFCURVE",
"479 329 CURVE SMOOTH",
"479 357 OFFCURVE",
"471 401 OFFCURVE",
"459 428 CURVE",
"390 428 LINE",
"390 355 LINE SMOOTH",
"390 271 OFFCURVE",
"368 244 OFFCURVE",
"294 242 CURVE",
"291 377 OFFCURVE",
"237 438 OFFCURVE",
"157 438 CURVE SMOOTH",
"88 438 OFFCURVE",
"36 394 OFFCURVE",
"36 319 CURVE SMOOTH",
"36 254 OFFCURVE",
"86 195 OFFCURVE",
"205 178 CURVE",
"194 74 OFFCURVE",
"151 -20 OFFCURVE",
"103 -108 CURVE",
"187 -108 LINE",
"246 -14 OFFCURVE",
"281 76 OFFCURVE",
"291 174 CURVE",
"385 177 OFFCURVE",
"420 209 OFFCURVE",
"432 251 CURVE",
"446 195 OFFCURVE",
"481 174 OFFCURVE",
"521 174 CURVE SMOOTH",
"564 174 OFFCURVE",
"588 186 OFFCURVE",
"606 223 CURVE",
"605 205 OFFCURVE",
"604 205 OFFCURVE",
"604 184 CURVE SMOOTH",
"604 -24 OFFCURVE",
"680 -118 OFFCURVE",
"835 -118 CURVE SMOOTH"
);
},
{
closed = 1;
nodes = (
"144 258 OFFCURVE",
"120 285 OFFCURVE",
"120 321 CURVE SMOOTH",
"120 353 OFFCURVE",
"137 365 OFFCURVE",
"157 365 CURVE SMOOTH",
"181 365 OFFCURVE",
"206 334 OFFCURVE",
"208 247 CURVE"
);
}
);
width = 1136;
}
);
unicode = 10B33;
},
{
glyphname = u10B34;
lastChange = "2017-02-24 13:58:11 +0000";
layers = (
{
layerId = UUID0;
paths = (
{
closed = 1;
nodes = (
"620 -240 OFFCURVE",
"740 -226 OFFCURVE",
"850 -201 CURVE",
"850 -124 LINE",
"727 -154 OFFCURVE",
"604 -166 OFFCURVE",
"486 -166 CURVE SMOOTH",
"344 -166 OFFCURVE",
"248 -126 OFFCURVE",
"198 -40 CURVE",
"461 -6 LINE",
"451 67 LINE",
"171 29 LINE",
"163 61 OFFCURVE",
"159 95 OFFCURVE",
"159 135 CURVE SMOOTH",
"159 162 OFFCURVE",
"159 189 OFFCURVE",
"160 215 CURVE",
"181 190 OFFCURVE",
"211 174 OFFCURVE",
"246 174 CURVE SMOOTH",
"334 174 OFFCURVE",
"360 207 OFFCURVE",
"372 251 CURVE",
"386 195 OFFCURVE",
"431 174 OFFCURVE",
"471 174 CURVE SMOOTH",
"514 174 OFFCURVE",
"538 186 OFFCURVE",
"556 223 CURVE",
"555 205 OFFCURVE",
"554 205 OFFCURVE",
"554 184 CURVE SMOOTH",
"554 21 OFFCURVE",
"630 -53 OFFCURVE",
"785 -53 CURVE SMOOTH",
"940 -53 OFFCURVE",
"1016 21 OFFCURVE",
"1016 184 CURVE SMOOTH",
"1016 283 OFFCURVE",
"1005 349 OFFCURVE",
"984 428 CURVE",
"896 428 LINE",
"916 348 OFFCURVE",
"927 281 OFFCURVE",
"927 188 CURVE SMOOTH",
"927 72 OFFCURVE",
"880 19 OFFCURVE",
"785 19 CURVE SMOOTH",
"690 19 OFFCURVE",
"643 72 OFFCURVE",
"643 188 CURVE SMOOTH",
"643 281 OFFCURVE",
"654 348 OFFCURVE",
"674 428 CURVE",
"586 428 LINE",
"585 424 OFFCURVE",
"581 410 OFFCURVE",
"579 398 CURVE SMOOTH",
"560 286 OFFCURVE",
"541 252 OFFCURVE",
"481 252 CURVE SMOOTH",
"448 252 OFFCURVE",
"419 277 OFFCURVE",
"419 329 CURVE SMOOTH",
"419 357 OFFCURVE",
"411 401 OFFCURVE",
"399 428 CURVE",
"330 428 LINE",
"330 355 LINE SMOOTH",
"330 275 OFFCURVE",
"311 252 OFFCURVE",
"248 252 CURVE SMOOTH",
"198 252 OFFCURVE",
"179 277 OFFCURVE",
"179 329 CURVE SMOOTH",
"179 353 OFFCURVE",
"184 391 OFFCURVE",
"194 428 CURVE",
"110 428 LINE",
"82 328 OFFCURVE",
"70 223 OFFCURVE",
"70 122 CURVE SMOOTH",
"70 -127 OFFCURVE",
"207 -240 OFFCURVE",
"483 -240 CURVE SMOOTH"
);
}
);
width = 1086;
}
);
unicode = 10B34;
},
{
glyphname = u10B35;
lastChange = "2017-02-24 13:58:11 +0000";
layers = (
{
layerId = UUID0;
paths = (
{
closed = 1;
nodes = (
"484 -118 OFFCURVE",
"556 -23 OFFCURVE",
"556 184 CURVE SMOOTH",
"556 199 LINE",
"575 184 OFFCURVE",
"598 178 OFFCURVE",
"621 178 CURVE SMOOTH",
"725 178 OFFCURVE",
"777 230 OFFCURVE",
"777 322 CURVE SMOOTH",
"777 350 OFFCURVE",
"767 397 OFFCURVE",
"757 428 CURVE",
"688 428 LINE",
"688 338 LINE SMOOTH",
"688 280 OFFCURVE",
"668 251 OFFCURVE",
"621 251 CURVE SMOOTH",
"590 251 OFFCURVE",
"556 276 OFFCURVE",
"556 332 CURVE SMOOTH",
"556 359 OFFCURVE",
"548 402 OFFCURVE",
"536 428 CURVE",
"467 428 LINE",
"467 188 LINE SMOOTH",
"467 28 OFFCURVE",
"424 -46 OFFCURVE",
"297 -46 CURVE SMOOTH",
"213 -46 OFFCURVE",
"178 24 OFFCURVE",
"163 93 CURVE",
"209 93 LINE SMOOTH",
"322 93 OFFCURVE",
"346 146 OFFCURVE",
"346 208 CURVE SMOOTH",
"346 359 OFFCURVE",
"286 438 OFFCURVE",
"205 438 CURVE SMOOTH",
"131 438 OFFCURVE",
"65 349 OFFCURVE",
"65 205 CURVE SMOOTH",
"65 -2 OFFCURVE",
"142 -118 OFFCURVE",
"297 -118 CURVE SMOOTH"
);
},
{
closed = 1;
nodes = (
"154 174 OFFCURVE",
"154 187 OFFCURVE",
"154 199 CURVE SMOOTH",
"154 298 OFFCURVE",
"171 365 OFFCURVE",
"206 365 CURVE SMOOTH",
"239 365 OFFCURVE",
"257 308 OFFCURVE",
"257 210 CURVE SMOOTH",
"257 179 OFFCURVE",
"241 161 OFFCURVE",
"199 161 CURVE SMOOTH",
"155 161 LINE"
);
}
);
width = 822;
}
);
unicode = 10B35;
},
{
glyphname = u10B39;
lastChange = "2017-02-24 13:58:11 +0000";
layers = (
{
layerId = UUID0;
paths = (
{
closed = 1;
nodes = (
"345 237 OFFCURVE",
"388 272 OFFCURVE",
"388 334 CURVE SMOOTH",
"388 393 OFFCURVE",
"344 428 OFFCURVE",
"287 428 CURVE SMOOTH",
"228 428 OFFCURVE",
"188 393 OFFCURVE",
"188 333 CURVE SMOOTH",
"188 272 OFFCURVE",
"228 237 OFFCURVE",
"287 237 CURVE SMOOTH"
);
},
{
closed = 1;
nodes = (
"245 267 OFFCURVE",
"221 292 OFFCURVE",
"221 333 CURVE SMOOTH",
"221 374 OFFCURVE",
"249 399 OFFCURVE",
"287 399 CURVE SMOOTH",
"325 399 OFFCURVE",
"353 374 OFFCURVE",
"353 333 CURVE SMOOTH",
"353 292 OFFCURVE",
"326 267 OFFCURVE",
"287 267 CURVE SMOOTH"
);
}
);
width = 577;
}
);
unicode = 10B39;
},
{
glyphname = u10B3A;
lastChange = "2017-02-24 13:58:11 +0000";
layers = (
{
layerId = UUID0;
paths = (
{
closed = 1;
nodes = (
"435 287 OFFCURVE",
"455 305 OFFCURVE",
"455 335 CURVE SMOOTH",
"455 365 OFFCURVE",
"435 383 OFFCURVE",
"406 383 CURVE SMOOTH",
"377 383 OFFCURVE",
"355 365 OFFCURVE",
"355 334 CURVE SMOOTH",
"355 305 OFFCURVE",
"377 287 OFFCURVE",
"406 287 CURVE SMOOTH"
);
},
{
closed = 1;
nodes = (
"285 40 OFFCURVE",
"305 57 OFFCURVE",
"305 87 CURVE SMOOTH",
"305 118 OFFCURVE",
"285 135 OFFCURVE",
"256 135 CURVE SMOOTH",
"227 135 OFFCURVE",
"205 118 OFFCURVE",
"205 87 CURVE SMOOTH",
"205 57 OFFCURVE",
"227 40 OFFCURVE",
"256 40 CURVE SMOOTH"
);
},
{
closed = 1;
nodes = (
"135 287 OFFCURVE",
"155 305 OFFCURVE",
"155 335 CURVE SMOOTH",
"155 365 OFFCURVE",
"135 383 OFFCURVE",
"106 383 CURVE SMOOTH",
"77 383 OFFCURVE",
"55 365 OFFCURVE",
"55 334 CURVE SMOOTH",
"55 305 OFFCURVE",
"77 287 OFFCURVE",
"106 287 CURVE SMOOTH"
);
}
);
width = 510;
}
);
unicode = 10B3A;
},
{
glyphname = u10B3B;
lastChange = "2017-02-24 13:58:11 +0000";
layers = (
{
layerId = UUID0;
paths = (
{
closed = 1;
nodes = (
"400 -33 OFFCURVE",
"430 -6 OFFCURVE",
"430 39 CURVE SMOOTH",
"430 85 OFFCURVE",
"400 111 OFFCURVE",
"356 111 CURVE SMOOTH",
"313 111 OFFCURVE",
"280 85 OFFCURVE",
"280 38 CURVE SMOOTH",
"280 -6 OFFCURVE",
"313 -33 OFFCURVE",
"356 -33 CURVE SMOOTH"
);
},
{
closed = 1;
nodes = (
"175 339 OFFCURVE",
"205 365 OFFCURVE",
"205 410 CURVE SMOOTH",
"205 456 OFFCURVE",
"175 482 OFFCURVE",
"131 482 CURVE SMOOTH",
"88 482 OFFCURVE",
"55 456 OFFCURVE",
"55 409 CURVE SMOOTH",
"55 365 OFFCURVE",
"88 339 OFFCURVE",
"131 339 CURVE SMOOTH"
);
},
{
closed = 1;
nodes = (
"625 339 OFFCURVE",
"655 365 OFFCURVE",
"655 410 CURVE SMOOTH",
"655 456 OFFCURVE",
"625 482 OFFCURVE",
"581 482 CURVE SMOOTH",
"538 482 OFFCURVE",
"505 456 OFFCURVE",
"505 409 CURVE SMOOTH",
"505 365 OFFCURVE",
"538 339 OFFCURVE",
"581 339 CURVE SMOOTH"
);
}
);
width = 710;
}
);
unicode = 10B3B;
},
{
glyphname = u10B3C;
lastChange = "2017-02-24 13:58:11 +0000";
layers = (
{
layerId = UUID0;
paths = (
{
closed = 1;
nodes = (
"815 369 OFFCURVE",
"855 404 OFFCURVE",
"855 464 CURVE SMOOTH",
"855 525 OFFCURVE",
"815 560 OFFCURVE",
"756 560 CURVE SMOOTH",
"698 560 OFFCURVE",
"655 525 OFFCURVE",
"655 463 CURVE SMOOTH",
"655 404 OFFCURVE",
"699 369 OFFCURVE",
"756 369 CURVE SMOOTH"
);
},
{
closed = 1;
nodes = (
"515 -126 OFFCURVE",
"555 -91 OFFCURVE",
"555 -31 CURVE SMOOTH",
"555 30 OFFCURVE",
"515 65 OFFCURVE",
"456 65 CURVE SMOOTH",
"398 65 OFFCURVE",
"355 30 OFFCURVE",
"355 -32 CURVE SMOOTH",
"355 -91 OFFCURVE",
"399 -126 OFFCURVE",
"456 -126 CURVE SMOOTH"
);
},
{
closed = 1;
nodes = (
"215 369 OFFCURVE",
"255 404 OFFCURVE",
"255 464 CURVE SMOOTH",
"255 525 OFFCURVE",
"215 560 OFFCURVE",
"156 560 CURVE SMOOTH",
"98 560 OFFCURVE",
"55 525 OFFCURVE",
"55 463 CURVE SMOOTH",
"55 404 OFFCURVE",
"99 369 OFFCURVE",
"156 369 CURVE SMOOTH"
);
}
);
width = 910;
}
);
unicode = 10B3C;
},
{
glyphname = u10B3D;
lastChange = "2017-02-24 13:58:11 +0000";
layers = (
{
layerId = UUID0;
paths = (
{
closed = 1;
nodes = (
"512 377 OFFCURVE",
"555 412 OFFCURVE",
"555 474 CURVE SMOOTH",
"555 533 OFFCURVE",
"511 568 OFFCURVE",
"454 568 CURVE SMOOTH",
"395 568 OFFCURVE",
"355 533 OFFCURVE",
"355 473 CURVE SMOOTH",
"355 412 OFFCURVE",
"395 377 OFFCURVE",
"454 377 CURVE SMOOTH"
);
},
{
closed = 1;
nodes = (
"212 -118 OFFCURVE",
"255 -83 OFFCURVE",
"255 -21 CURVE SMOOTH",
"255 38 OFFCURVE",
"211 73 OFFCURVE",
"154 73 CURVE SMOOTH",
"95 73 OFFCURVE",
"55 38 OFFCURVE",
"55 -22 CURVE SMOOTH",
"55 -83 OFFCURVE",
"95 -118 OFFCURVE",
"154 -118 CURVE SMOOTH"
);
},
{
closed = 1;
nodes = (
"812 -118 OFFCURVE",
"855 -83 OFFCURVE",
"855 -21 CURVE SMOOTH",
"855 38 OFFCURVE",
"811 73 OFFCURVE",
"754 73 CURVE SMOOTH",
"695 73 OFFCURVE",
"655 38 OFFCURVE",
"655 -22 CURVE SMOOTH",
"655 -83 OFFCURVE",
"695 -118 OFFCURVE",
"754 -118 CURVE SMOOTH"
);
}
);
width = 910;
}
);
unicode = 10B3D;
},
{
glyphname = u10B3E;
lastChange = "2017-02-24 13:58:11 +0000";
layers = (
{
layerId = UUID0;
paths = (
{
closed = 1;
nodes = (
"815 377 OFFCURVE",
"855 412 OFFCURVE",
"855 472 CURVE SMOOTH",
"855 533 OFFCURVE",
"815 568 OFFCURVE",
"756 568 CURVE SMOOTH",
"698 568 OFFCURVE",
"655 533 OFFCURVE",
"655 471 CURVE SMOOTH",
"655 412 OFFCURVE",
"699 377 OFFCURVE",
"756 377 CURVE SMOOTH"
);
},
{
closed = 1;
nodes = (
"515 -118 OFFCURVE",
"555 -83 OFFCURVE",
"555 -23 CURVE SMOOTH",
"555 38 OFFCURVE",
"515 73 OFFCURVE",
"456 73 CURVE SMOOTH",
"398 73 OFFCURVE",
"355 38 OFFCURVE",
"355 -24 CURVE SMOOTH",
"355 -83 OFFCURVE",
"399 -118 OFFCURVE",
"456 -118 CURVE SMOOTH"
);
},
{
closed = 1;
nodes = (
"418 -89 OFFCURVE",
"390 -64 OFFCURVE",
"390 -23 CURVE SMOOTH",
"390 18 OFFCURVE",
"417 43 OFFCURVE",
"456 43 CURVE SMOOTH",
"498 43 OFFCURVE",
"522 18 OFFCURVE",
"522 -23 CURVE SMOOTH",
"522 -64 OFFCURVE",
"494 -89 OFFCURVE",
"456 -89 CURVE SMOOTH"
);
},
{
closed = 1;
nodes = (
"215 377 OFFCURVE",
"255 412 OFFCURVE",
"255 472 CURVE SMOOTH",
"255 533 OFFCURVE",
"215 568 OFFCURVE",
"156 568 CURVE SMOOTH",
"98 568 OFFCURVE",
"55 533 OFFCURVE",
"55 471 CURVE SMOOTH",
"55 412 OFFCURVE",
"99 377 OFFCURVE",
"156 377 CURVE SMOOTH"
);
},
{
closed = 1;
nodes = (
"118 406 OFFCURVE",
"90 431 OFFCURVE",
"90 472 CURVE SMOOTH",
"90 513 OFFCURVE",
"117 538 OFFCURVE",
"156 538 CURVE SMOOTH",
"198 538 OFFCURVE",
"222 513 OFFCURVE",
"222 472 CURVE SMOOTH",
"222 431 OFFCURVE",
"194 406 OFFCURVE",
"156 406 CURVE SMOOTH"
);
},
{
closed = 1;
nodes = (
"718 406 OFFCURVE",
"690 431 OFFCURVE",
"690 472 CURVE SMOOTH",
"690 513 OFFCURVE",
"717 538 OFFCURVE",
"756 538 CURVE SMOOTH",
"798 538 OFFCURVE",
"822 513 OFFCURVE",
"822 472 CURVE SMOOTH",
"822 431 OFFCURVE",
"794 406 OFFCURVE",
"756 406 CURVE SMOOTH"
);
}
);
width = 910;
}
);
unicode = 10B3E;
},
{
glyphname = u10B3F;
lastChange = "2017-02-24 13:58:11 +0000";
layers = (
{
layerId = UUID0;
paths = (
{
closed = 1;
nodes = (
"512 377 OFFCURVE",
"555 412 OFFCURVE",
"555 474 CURVE SMOOTH",
"555 533 OFFCURVE",
"511 568 OFFCURVE",
"454 568 CURVE SMOOTH",
"395 568 OFFCURVE",
"355 533 OFFCURVE",
"355 473 CURVE SMOOTH",
"355 412 OFFCURVE",
"395 377 OFFCURVE",
"454 377 CURVE SMOOTH"
);
},
{
closed = 1;
nodes = (
"212 -118 OFFCURVE",
"255 -83 OFFCURVE",
"255 -21 CURVE SMOOTH",
"255 38 OFFCURVE",
"211 73 OFFCURVE",
"154 73 CURVE SMOOTH",
"95 73 OFFCURVE",
"55 38 OFFCURVE",
"55 -22 CURVE SMOOTH",
"55 -83 OFFCURVE",
"95 -118 OFFCURVE",
"154 -118 CURVE SMOOTH"
);
},
{
closed = 1;
nodes = (
"112 -88 OFFCURVE",
"88 -63 OFFCURVE",
"88 -22 CURVE SMOOTH",
"88 19 OFFCURVE",
"116 44 OFFCURVE",
"154 44 CURVE SMOOTH",
"192 44 OFFCURVE",
"220 19 OFFCURVE",
"220 -22 CURVE SMOOTH",
"220 -63 OFFCURVE",
"193 -88 OFFCURVE",
"154 -88 CURVE SMOOTH"
);
},
{
closed = 1;
nodes = (
"812 -118 OFFCURVE",
"855 -83 OFFCURVE",
"855 -21 CURVE SMOOTH",
"855 38 OFFCURVE",
"811 73 OFFCURVE",
"754 73 CURVE SMOOTH",
"695 73 OFFCURVE",
"655 38 OFFCURVE",
"655 -22 CURVE SMOOTH",
"655 -83 OFFCURVE",
"695 -118 OFFCURVE",
"754 -118 CURVE SMOOTH"
);
},
{
closed = 1;
nodes = (
"712 -88 OFFCURVE",
"688 -63 OFFCURVE",
"688 -22 CURVE SMOOTH",
"688 19 OFFCURVE",
"716 44 OFFCURVE",
"754 44 CURVE SMOOTH",
"792 44 OFFCURVE",
"820 19 OFFCURVE",
"820 -22 CURVE SMOOTH",
"820 -63 OFFCURVE",
"793 -88 OFFCURVE",
"754 -88 CURVE SMOOTH"
);
},
{
closed = 1;
nodes = (
"412 407 OFFCURVE",
"388 432 OFFCURVE",
"388 473 CURVE SMOOTH",
"388 514 OFFCURVE",
"416 539 OFFCURVE",
"454 539 CURVE SMOOTH",
"492 539 OFFCURVE",
"520 514 OFFCURVE",
"520 473 CURVE SMOOTH",
"520 432 OFFCURVE",
"493 407 OFFCURVE",
"454 407 CURVE SMOOTH"
);
}
);
width = 910;
}
);
unicode = 10B3F;
},
{
glyphname = u10B3110B00;
lastChange = "2017-02-24 13:58:11 +0000";
layers = (
{
layerId = UUID0;
paths = (
{
closed = 1;
nodes = (
"1302 428 LINE",
"1326 324 OFFCURVE",
"1333 276 OFFCURVE",
"1333 188 CURVE SMOOTH",
"1333 28 OFFCURVE",
"1286 -46 OFFCURVE",
"1191 -46 CURVE SMOOTH",
"1096 -46 OFFCURVE",
"1049 28 OFFCURVE",
"1049 188 CURVE SMOOTH",
"1049 273 OFFCURVE",
"1053 326 OFFCURVE",
"1080 428 CURVE",
"992 428 LINE",
"962 315 OFFCURVE",
"952 297 OFFCURVE",
"897 297 CURVE SMOOTH",
"869 297 OFFCURVE",
"850 308 OFFCURVE",
"841 325 CURVE",
"837 358 OFFCURVE",
"830 391 OFFCURVE",
"819 428 CURVE",
"731 428 LINE",
"755 324 OFFCURVE",
"762 276 OFFCURVE",
"762 188 CURVE SMOOTH",
"762 28 OFFCURVE",
"715 -46 OFFCURVE",
"620 -46 CURVE SMOOTH",
"525 -46 OFFCURVE",
"478 28 OFFCURVE",
"478 188 CURVE SMOOTH",
"478 273 OFFCURVE",
"485 325 OFFCURVE",
"509 428 CURVE",
"421 428 LINE",
"391 315 OFFCURVE",
"381 297 OFFCURVE",
"326 297 CURVE SMOOTH",
"286 297 OFFCURVE",
"264 318 OFFCURVE",
"264 354 CURVE SMOOTH",
"264 374 OFFCURVE",
"255 412 OFFCURVE",
"244 428 CURVE",
"175 428 LINE",
"175 373 LINE SMOOTH",
"175 316 OFFCURVE",
"157 292 OFFCURVE",
"110 292 CURVE SMOOTH",
"20 292 LINE",
"20 229 LINE",
"51 222 OFFCURVE",
"84 219 OFFCURVE",
"119 219 CURVE SMOOTH",
"180 219 OFFCURVE",
"207 245 OFFCURVE",
"222 296 CURVE",
"239 245 OFFCURVE",
"273 219 OFFCURVE",
"323 219 CURVE SMOOTH",
"350 219 OFFCURVE",
"373 227 OFFCURVE",
"391 243 CURVE",
"390 224 OFFCURVE",
"389 207 OFFCURVE",
"389 184 CURVE SMOOTH",
"389 -24 OFFCURVE",
"464 -118 OFFCURVE",
"620 -118 CURVE SMOOTH",
"775 -118 OFFCURVE",
"851 -23 OFFCURVE",
"851 184 CURVE SMOOTH",
"851 199 OFFCURVE",
"851 214 OFFCURVE",
"850 227 CURVE",
"863 222 OFFCURVE",
"877 219 OFFCURVE",
"894 219 CURVE SMOOTH",
"921 219 OFFCURVE",
"944 227 OFFCURVE",
"961 243 CURVE",
"961 224 OFFCURVE",
"960 207 OFFCURVE",
"960 184 CURVE SMOOTH",
"960 -24 OFFCURVE",
"1035 -118 OFFCURVE",
"1191 -118 CURVE SMOOTH",
"1346 -118 OFFCURVE",
"1422 -23 OFFCURVE",
"1422 184 CURVE SMOOTH",
"1422 267 OFFCURVE",
"1414 331 OFFCURVE",
"1390 428 CURVE"
);
}
);
width = 1492;
}
);
},
{
glyphname = u10B3110B17;
lastChange = "2017-02-24 13:58:11 +0000";
layers = (
{
layerId = UUID0;
paths = (
{
closed = 1;
nodes = (
"174 -138 LINE",
"174 127 LINE",
"201 98 OFFCURVE",
"241 84 OFFCURVE",
"292 84 CURVE SMOOTH",
"341 84 OFFCURVE",
"381 91 OFFCURVE",
"412 104 CURVE",
"431 -48 OFFCURVE",
"504 -118 OFFCURVE",
"639 -118 CURVE SMOOTH",
"794 -118 OFFCURVE",
"870 -23 OFFCURVE",
"870 184 CURVE SMOOTH",
"870 199 OFFCURVE",
"869 214 OFFCURVE",
"869 227 CURVE",
"882 222 OFFCURVE",
"896 219 OFFCURVE",
"913 219 CURVE SMOOTH",
"940 219 OFFCURVE",
"962 227 OFFCURVE",
"980 243 CURVE",
"979 224 OFFCURVE",
"979 207 OFFCURVE",
"979 184 CURVE SMOOTH",
"979 -24 OFFCURVE",
"1054 -118 OFFCURVE",
"1209 -118 CURVE SMOOTH",
"1365 -118 OFFCURVE",
"1440 -23 OFFCURVE",
"1440 184 CURVE SMOOTH",
"1440 266 OFFCURVE",
"1435 333 OFFCURVE",
"1408 428 CURVE",
"1320 428 LINE",
"1347 325 OFFCURVE",
"1352 276 OFFCURVE",
"1352 188 CURVE SMOOTH",
"1352 28 OFFCURVE",
"1304 -46 OFFCURVE",
"1209 -46 CURVE SMOOTH",
"1114 -46 OFFCURVE",
"1067 28 OFFCURVE",
"1067 188 CURVE SMOOTH",
"1067 273 OFFCURVE",
"1074 326 OFFCURVE",
"1098 428 CURVE",
"1010 428 LINE",
"983 315 OFFCURVE",
"968 297 OFFCURVE",
"916 297 CURVE SMOOTH",
"888 297 OFFCURVE",
"868 308 OFFCURVE",
"859 325 CURVE",
"855 358 OFFCURVE",
"849 391 OFFCURVE",
"837 428 CURVE",
"750 428 LINE",
"774 324 OFFCURVE",
"781 276 OFFCURVE",
"781 188 CURVE SMOOTH",
"781 28 OFFCURVE",
"732 -46 OFFCURVE",
"639 -46 CURVE SMOOTH",
"543 -46 OFFCURVE",
"497 28 OFFCURVE",
"497 188 CURVE SMOOTH",
"497 273 OFFCURVE",
"503 326 OFFCURVE",
"527 428 CURVE",
"439 428 LINE",
"418 353 OFFCURVE",
"410 289 OFFCURVE",
"409 238 CURVE",
"396 177 OFFCURVE",
"352 157 OFFCURVE",
"285 157 CURVE SMOOTH",
"180 157 OFFCURVE",
"174 196 OFFCURVE",
"174 283 CURVE SMOOTH",
"174 429 LINE",
"85 429 LINE",
"85 -138 LINE"
);
}
);
width = 1510;
}
);
},
{
glyphname = u10B3110B19;
lastChange = "2017-02-24 13:58:11 +0000";
layers = (
{
layerId = UUID0;
paths = (
{
closed = 1;
nodes = (
"694 -118 OFFCURVE",
"788 -22 OFFCURVE",
"788 198 CURVE SMOOTH",
"788 235 LINE",
"807 224 OFFCURVE",
"827 219 OFFCURVE",
"851 219 CURVE SMOOTH",
"878 219 OFFCURVE",
"900 227 OFFCURVE",
"917 243 CURVE",
"917 184 LINE SMOOTH",
"917 -23 OFFCURVE",
"992 -118 OFFCURVE",
"1147 -118 CURVE SMOOTH",
"1303 -118 OFFCURVE",
"1378 -23 OFFCURVE",
"1378 184 CURVE SMOOTH",
"1378 266 OFFCURVE",
"1373 333 OFFCURVE",
"1346 428 CURVE",
"1258 428 LINE",
"1285 325 OFFCURVE",
"1290 276 OFFCURVE",
"1290 188 CURVE SMOOTH",
"1290 28 OFFCURVE",
"1242 -46 OFFCURVE",
"1147 -46 CURVE SMOOTH",
"1052 -46 OFFCURVE",
"1005 28 OFFCURVE",
"1005 188 CURVE SMOOTH",
"1005 273 OFFCURVE",
"1012 326 OFFCURVE",
"1036 428 CURVE",
"948 428 LINE",
"918 315 OFFCURVE",
"907 297 OFFCURVE",
"854 297 CURVE SMOOTH",
"814 297 OFFCURVE",
"791 318 OFFCURVE",
"791 354 CURVE SMOOTH",
"791 374 OFFCURVE",
"781 413 OFFCURVE",
"771 428 CURVE",
"695 428 LINE",
"698 381 OFFCURVE",
"700 275 OFFCURVE",
"700 189 CURVE SMOOTH",
"700 29 OFFCURVE",
"645 -46 OFFCURVE",
"518 -46 CURVE SMOOTH",
"451 -46 OFFCURVE",
"393 2 OFFCURVE",
"375 94 CURVE",
"420 94 LINE SMOOTH",
"512 94 OFFCURVE",
"558 128 OFFCURVE",
"558 209 CURVE SMOOTH",
"558 349 OFFCURVE",
"502 438 OFFCURVE",
"417 438 CURVE SMOOTH",
"341 438 OFFCURVE",
"276 342 OFFCURVE",
"276 210 CURVE SMOOTH",
"276 202 OFFCURVE",
"276 192 OFFCURVE",
"277 183 CURVE",
"210 242 OFFCURVE",
"164 388 OFFCURVE",
"144 428 CURVE",
"51 428 LINE",
"101 359 OFFCURVE",
"122 300 OFFCURVE",
"122 212 CURVE SMOOTH",
"122 139 OFFCURVE",
"95 65 OFFCURVE",
"50 0 CURVE",
"134 0 LINE",
"185 64 OFFCURVE",
"196 118 OFFCURVE",
"201 185 CURVE",
"209 167 OFFCURVE",
"241 127 OFFCURVE",
"284 105 CURVE",
"307 -42 OFFCURVE",
"386 -118 OFFCURVE",
"517 -118 CURVE SMOOTH"
);
},
{
closed = 1;
nodes = (
"365 200 LINE SMOOTH",
"365 304 OFFCURVE",
"385 365 OFFCURVE",
"417 365 CURVE SMOOTH",
"450 365 OFFCURVE",
"468 310 OFFCURVE",
"468 211 CURVE SMOOTH",
"468 179 OFFCURVE",
"454 162 OFFCURVE",
"411 162 CURVE SMOOTH",
"365 162 LINE"
);
}
);
width = 1448;
}
);
},
{
glyphname = u10B0010B35;
lastChange = "2017-02-24 13:58:11 +0000";
layers = (
{
layerId = UUID0;
paths = (
{
closed = 1;
nodes = (
"477 -118 OFFCURVE",
"556 -31 OFFCURVE",
"556 185 CURVE SMOOTH",
"556 200 LINE",
"573 186 OFFCURVE",
"595 179 OFFCURVE",
"621 179 CURVE SMOOTH",
"642 179 OFFCURVE",
"660 181 OFFCURVE",
"677 185 CURVE",
"677 -22 OFFCURVE",
"753 -118 OFFCURVE",
"908 -118 CURVE SMOOTH",
"1063 -118 OFFCURVE",
"1139 -23 OFFCURVE",
"1139 184 CURVE SMOOTH",
"1139 193 LINE",
"1154 184 OFFCURVE",
"1173 179 OFFCURVE",
"1195 179 CURVE SMOOTH",
"1299 179 OFFCURVE",
"1351 231 OFFCURVE",
"1351 323 CURVE SMOOTH",
"1351 348 OFFCURVE",
"1342 396 OFFCURVE",
"1331 429 CURVE",
"1262 429 LINE",
"1262 339 LINE SMOOTH",
"1262 279 OFFCURVE",
"1242 252 OFFCURVE",
"1195 252 CURVE SMOOTH",
"1172 252 OFFCURVE",
"1144 269 OFFCURVE",
"1130 299 CURVE",
"1125 346 OFFCURVE",
"1116 395 OFFCURVE",
"1107 428 CURVE",
"1019 428 LINE",
"1043 323 OFFCURVE",
"1050 276 OFFCURVE",
"1050 188 CURVE SMOOTH",
"1050 28 OFFCURVE",
"1003 -46 OFFCURVE",
"908 -46 CURVE SMOOTH",
"813 -46 OFFCURVE",
"766 28 OFFCURVE",
"766 188 CURVE SMOOTH",
"766 273 OFFCURVE",
"773 326 OFFCURVE",
"797 428 CURVE",
"709 428 LINE",
"694 377 OFFCURVE",
"686 332 OFFCURVE",
"682 292 CURVE",
"673 265 OFFCURVE",
"652 252 OFFCURVE",
"621 252 CURVE SMOOTH",
"582 252 OFFCURVE",
"556 283 OFFCURVE",
"556 332 CURVE SMOOTH",
"556 357 OFFCURVE",
"546 404 OFFCURVE",
"536 428 CURVE",
"467 428 LINE",
"467 189 LINE SMOOTH",
"467 21 OFFCURVE",
"419 -46 OFFCURVE",
"297 -46 CURVE SMOOTH",
"229 -46 OFFCURVE",
"184 1 OFFCURVE",
"163 94 CURVE",
"209 94 LINE SMOOTH",
"301 94 OFFCURVE",
"346 128 OFFCURVE",
"346 209 CURVE SMOOTH",
"346 349 OFFCURVE",
"291 438 OFFCURVE",
"205 438 CURVE SMOOTH",
"129 438 OFFCURVE",
"65 342 OFFCURVE",
"65 210 CURVE SMOOTH",
"65 -3 OFFCURVE",
"144 -118 OFFCURVE",
"297 -118 CURVE SMOOTH"
);
},
{
closed = 1;
nodes = (
"154 200 LINE SMOOTH",
"154 304 OFFCURVE",
"173 365 OFFCURVE",
"206 365 CURVE SMOOTH",
"239 365 OFFCURVE",
"257 310 OFFCURVE",
"257 211 CURVE SMOOTH",
"257 179 OFFCURVE",
"242 162 OFFCURVE",
"199 162 CURVE SMOOTH",
"154 162 LINE"
);
}
